<?xml version="1.0" encoding="UTF-8"?>
<svg version="1.1" xmlns="http://www.w3.org/2000/svg" width="200" height="209">
<path d="M0 0 C3.67127074 1.99164778 7.33667621 3.99377704 11 6 C11.74378906 6.4021875 12.48757812 6.804375 13.25390625 7.21875 C17.88580692 9.77161383 17.88580692 9.77161383 19 12 C19.09873035 15.00494038 19.1362623 17.98673084 19.12939453 20.99194336 C19.13114685 21.92375931 19.13289917 22.85557526 19.13470459 23.81562805 C19.13911887 26.90705203 19.13618635 29.99841915 19.1328125 33.08984375 C19.13348572 35.23214224 19.13445589 37.37444066 19.13571167 39.51673889 C19.13718811 44.0117363 19.135036 48.50671387 19.13037109 53.00170898 C19.12467728 58.77005311 19.12795096 64.53835067 19.13394356 70.30669308 C19.13755352 74.73238985 19.13640851 79.15807555 19.13381577 83.58377266 C19.13314753 85.71089242 19.13397133 87.83801317 19.13629532 89.96513176 C19.13882857 92.93633571 19.13497151 95.90746382 19.12939453 98.87866211 C19.13141876 99.76240509 19.13344299 100.64614807 19.13552856 101.55667114 C19.12369575 104.95144142 19.08100275 107.75699174 18 111 C13.97154346 114.06888857 10.09422677 115.87841925 5.0625 116.4375 C2 116 2 116 0 114 C-0.26450634 111.99193478 -0.26450634 111.99193478 -0.28520203 109.4763031 C-0.29781067 108.52419952 -0.31041931 107.57209595 -0.32341003 106.59114075 C-0.32714127 105.54326889 -0.3308725 104.49539703 -0.3347168 103.41577148 C-0.34636871 102.31493225 -0.35802063 101.21409302 -0.37002563 100.07989502 C-0.40612647 96.42697699 -0.42790872 92.77412576 -0.44921875 89.12109375 C-0.47045668 86.59285376 -0.49242308 84.06461979 -0.51509094 81.53639221 C-0.56055378 76.23270088 -0.5995701 70.9290202 -0.63305664 65.62524414 C-0.67187893 59.48578187 -0.72114776 53.34647453 -0.77638692 47.20713943 C-0.82935304 41.3093177 -0.87646061 35.41146226 -0.92057228 29.51356697 C-0.93968744 26.99961445 -0.96005386 24.48567113 -0.98166466 21.97173882 C-1.01067839 18.46611613 -1.03306924 14.96051597 -1.0534668 11.45483398 C-1.06327072 10.4049379 -1.07307465 9.35504181 -1.08317566 8.27333069 C-1.08732483 7.32404694 -1.091474 6.37476318 -1.0957489 5.39671326 C-1.1014474 4.56693183 -1.1071459 3.7371504 -1.11301708 2.88222408 C-1 1 -1 1 0 0 Z " fill="#5983E7" transform="translate(43,47)"/>
<path d="M0 0 C4.16527733 1.53746583 7.96599097 3.55608717 11.8125 5.75 C12.48249023 6.12979004 13.15248047 6.50958008 13.84277344 6.90087891 C20.49956735 10.68887634 27.12671438 14.52880361 33.75 18.375 C34.79776611 18.98182617 35.84553223 19.58865234 36.92504883 20.21386719 C37.91400146 20.79040039 38.9029541 21.36693359 39.921875 21.9609375 C40.80456055 22.47446777 41.68724609 22.98799805 42.59667969 23.51708984 C44.83898476 24.90064947 46.92227449 26.38231644 49 28 C47.6057454 31.42608975 46.28593454 32.74063915 43.02734375 34.4453125 C42.2180542 34.8777124 41.40876465 35.3101123 40.57495117 35.75561523 C39.70459229 36.20751221 38.8342334 36.65940918 37.9375 37.125 C36.11863379 38.09548929 34.30094514 39.06818841 32.484375 40.04296875 C31.56720703 40.5332959 30.65003906 41.02362305 29.70507812 41.52880859 C25.64314257 43.7379443 21.6614591 46.07465369 17.6875 48.4375 C16.67707642 49.03812256 16.67707642 49.03812256 15.64624023 49.65087891 C15.00372314 50.0329248 14.36120605 50.4149707 13.69921875 50.80859375 C13.08481934 51.17194824 12.47041992 51.53530273 11.83740234 51.90966797 C10.57829862 52.6568321 9.32360238 53.41145951 8.07275391 54.17236328 C3.3319027 57 3.3319027 57 0 57 C-1.00613356 53.98159933 -1.12670084 51.96512385 -1.12939453 48.81005859 C-1.13254669 47.75241302 -1.13569885 46.69476746 -1.13894653 45.60507202 C-1.1369223 44.46438263 -1.13489807 43.32369324 -1.1328125 42.1484375 C-1.13376923 40.97866364 -1.13472595 39.80888977 -1.13571167 38.60366821 C-1.13639245 36.13063503 -1.13454525 33.65760006 -1.13037109 31.18457031 C-1.12501188 27.38342311 -1.13032449 23.58239356 -1.13671875 19.78125 C-1.13605814 17.38281224 -1.13477733 14.98437455 -1.1328125 12.5859375 C-1.13483673 11.44119965 -1.13686096 10.29646179 -1.13894653 9.11703491 C-1.13579437 8.06569366 -1.13264221 7.01435242 -1.12939453 5.93115234 C-1.12859894 5.00088226 -1.12780334 4.07061218 -1.12698364 3.1121521 C-1 1 -1 1 0 0 Z " fill="#37B0E2" transform="translate(71,68)"/>
<path d="M0 0 C1.76462683 3.08809695 2 4.23312136 2 8 C0.84628906 8.62003906 -0.30742187 9.24007812 -1.49609375 9.87890625 C-12.38374583 15.77586459 -23.05307604 21.96908916 -33.64624023 28.37915039 C-40.2136066 32.34688194 -46.82130944 36.22291283 -53.5 40 C-62.50135171 45.09127803 -71.37353993 50.38265233 -80.21289062 55.75 C-97.18418378 66.01946619 -97.18418378 66.01946619 -105 69 C-105.12375 70.5778125 -105.12375 70.5778125 -105.25 72.1875 C-106.18798218 76.95557607 -107.8853695 79.41402713 -111.75 82.3125 C-116.33718003 83.71413834 -120.42553553 83.62978579 -124.8125 81.875 C-128.40037194 78.79968119 -129.76150084 75.63542281 -130.4375 71 C-129.86194625 67.05334571 -128.56674431 65.03956563 -126 62 C-122.41832786 59.53262586 -120.67682607 58.95411349 -116.3125 59.25 C-113 60 -113 60 -110 61 C-107.62802629 60.05449857 -107.62802629 60.05449857 -105.08203125 58.52734375 C-103.59062622 57.68357178 -103.59062622 57.68357178 -102.0690918 56.82275391 C-100.9944165 56.20062012 -99.91974121 55.57848633 -98.8125 54.9375 C-97.13377808 53.98109619 -97.13377808 53.98109619 -95.42114258 53.00537109 C-86.98760787 48.19539238 -78.60305494 43.29877331 -70.22680664 38.38989258 C-59.68942 32.21539569 -49.0814276 26.16594775 -38.47044373 20.11927795 C-34.00121137 17.57220031 -29.53516753 15.01958576 -25.0703125 12.46484375 C-23.76920846 11.72053559 -22.46810173 10.97623214 -21.16699219 10.23193359 C-19.28294824 9.15414202 -17.39897639 8.07622564 -15.51525879 6.99786377 C-13.78910245 6.00979812 -12.06253017 5.02245924 -10.3359375 4.03515625 C-9.35157715 3.4719165 -8.3672168 2.90867676 -7.35302734 2.32836914 C-3.22863444 0 -3.22863444 0 0 0 Z M-120 68 C-121.12516085 69.83284443 -121.12516085 69.83284443 -122 72 C-121.67 72.99 -121.34 73.98 -121 75 C-119.1477633 76.00478037 -119.1477633 76.00478037 -117 76 C-115.22809091 74.64555699 -115.22809091 74.64555699 -114 73 C-114.66 71.35 -115.32 69.7 -116 68 C-117.32 68 -118.64 68 -120 68 Z " fill="#3EB0DD" transform="translate(161,110)"/>
<path d="M0 0 C4.07125173 1.26336299 7.71806631 2.77289137 11.46484375 4.80078125 C12.5005249 5.35926758 13.53620605 5.91775391 14.60327148 6.49316406 C16.2537146 7.39373535 16.2537146 7.39373535 17.9375 8.3125 C19.66045288 9.24594238 19.66045288 9.24594238 21.41821289 10.19824219 C29.93476864 14.82232727 38.37377494 19.57956136 46.79345703 24.37744141 C53.50624472 28.19080906 60.29195108 31.83377873 67.13916016 35.39892578 C76.89034111 40.4847871 86.52276155 45.80233554 96.02734375 51.3359375 C96.97323364 51.88483643 96.97323364 51.88483643 97.93823242 52.44482422 C99.62355761 53.42635979 101.30416603 54.41598191 102.984375 55.40625 C105.96258352 56.98022549 108.74304061 58.14388496 112 59 C112.66 58.67 113.32 58.34 114 58 C118.75455661 57.41994409 122.17358231 57.58679115 126.5 59.75 C129.81325301 62.73192771 129.81325301 62.73192771 130 66 C130.0825 67.11375 130.165 68.2275 130.25 69.375 C129.97923223 73.30113263 128.9712563 75.63243715 127 79 C128.32 79 129.64 79 131 79 C131 75.37 131 71.74 131 68 C131.33 68 131.66 68 132 68 C132 72.29 132 76.58 132 81 C130.659375 80.979375 129.31875 80.95875 127.9375 80.9375 C124.85760093 80.91340063 122.42724812 81.11850039 119.375 81.75 C114.63540725 82.10108094 112.85505078 80.72121232 109 78 C107 75 107 75 106.50390625 71.69140625 C104.22633077 66.10099371 100.14529493 64.62331592 94.9375 61.9375 C92.83445148 60.80242407 90.73159341 59.6669952 88.62890625 58.53125 C87.53594238 57.95117188 86.44297852 57.37109375 85.31689453 56.7734375 C79.95800374 53.90820986 74.67023431 50.91820647 69.375 47.9375 C67.26308223 46.75640063 65.15110364 45.57541 63.0390625 44.39453125 C57.58944722 41.3389218 52.16644405 38.23891352 46.75 35.125 C36.94509725 29.48912615 27.04366723 24.03291981 17.12207031 18.60595703 C10.32414884 14.88062234 3.60752468 11.05494055 -3 7 C-1.125 2.25 -1.125 2.25 0 0 Z M115 67 C114.95936168 68.66617115 114.957279 70.33388095 115 72 C117.97 72.495 117.97 72.495 121 73 C121.38133299 71.0085944 121.71325582 69.00720923 122 67 C120.9404123 65.71677453 120.9404123 65.71677453 118.5 65.875 C116.0595877 65.71677453 116.0595877 65.71677453 115 67 Z " fill="#46C3CC" transform="translate(55,17)"/>
<path d="M0 0 C3.13499476 1.44209759 5.13349476 3.09078658 7 6 C7.95844719 9.55911182 8.10182374 12.47726777 7 16 C6.01350909 16.98151702 5.009999 17.94603052 3.99630737 18.89942932 C-0.30508188 23.84108313 0.1598606 28.98139874 0.22705078 35.26928711 C0.21642105 36.48950562 0.20579132 37.70972412 0.19483948 38.96691895 C0.17162977 42.2956097 0.17471609 45.62229051 0.18970728 48.95089412 C0.19911418 52.43567406 0.17461208 55.92021577 0.15377808 59.40492249 C0.1194895 65.99569283 0.11549258 72.58611595 0.12250316 79.17695767 C0.12900381 86.68373273 0.10154589 94.19026503 0.07130075 101.69696796 C0.0098717 117.13135151 -0.00912439 132.5654871 0 148 C-3.32534757 149.10844919 -5.62182575 148.84454356 -9 148 C-9.00054477 147.3552387 -9.00108953 146.71047739 -9.00165081 146.04617786 C-9.01662029 130.35527079 -9.05907344 114.66471495 -9.13209057 98.9739809 C-9.16673899 91.38602295 -9.19209587 83.79824663 -9.19555664 76.21020508 C-9.19859677 69.59618551 -9.21909341 62.98248944 -9.26052457 56.36859483 C-9.2818524 52.86671063 -9.29445668 49.36528628 -9.28615379 45.86333656 C-9.2772104 41.95325321 -9.30724157 38.04399604 -9.34057617 34.1340332 C-9.33195053 32.97381653 -9.32332489 31.81359985 -9.31443787 30.6182251 C-9.32589719 24.24092972 -9.32589719 24.24092972 -12.47871399 18.86662292 C-13.31073837 18.25063736 -14.14276276 17.63465179 -15 17 C-16.61429923 13.77140153 -16.59570657 10.49006347 -16 7 C-12.17623505 0.3369469 -7.29529062 -1.20003966 0 0 Z M-7.8125 8.1875 C-9.25290328 9.95054109 -9.25290328 9.95054109 -8.6875 12.1875 C-8.460625 12.785625 -8.23375 13.38375 -8 14 C-5.60280568 14.67958603 -5.60280568 14.67958603 -3 15 C-2.34 14.34 -1.68 13.68 -1 13 C-1.32041397 10.39719432 -1.32041397 10.39719432 -2 8 C-5.00748915 6.84137694 -5.00748915 6.84137694 -7.8125 8.1875 Z " fill="#5293C0" transform="translate(33,10)"/>
<path d="M0 0 C5.23290922 1.65921512 9.92300122 4.67040422 14.65966797 7.39208984 C15.86412252 8.07381284 17.06904577 8.75470837 18.27441406 9.43481445 C26.9934069 14.36916327 35.64749974 19.4174926 44.28466797 24.4934082 C51.52464611 28.74210068 58.82613157 32.86979341 66.15966797 36.95458984 C81.54024128 45.54336926 81.54024128 45.54336926 88.22216797 49.39208984 C88.92849365 49.79008789 89.63481934 50.18808594 90.36254883 50.59814453 C95.1066163 53.35793483 95.1066163 53.35793483 96.22216797 56.70458984 C94.99947416 57.52679833 93.76865013 58.33692218 92.53466797 59.14208984 C91.85017578 59.59455078 91.16568359 60.04701172 90.46044922 60.51318359 C87.90835357 61.87162892 86.10779373 62.43169582 83.22216797 62.70458984 C80.61694336 61.64746094 80.61694336 61.64746094 77.81982422 59.97802734 C76.77632813 59.36507812 75.73283203 58.75212891 74.65771484 58.12060547 C73.54460937 57.44707031 72.43150391 56.77353516 71.28466797 56.07958984 C70.11294353 55.38487667 68.94040576 54.69153361 67.76708984 53.99951172 C65.38022862 52.58855323 62.9984585 51.16957666 60.62109375 49.74267578 C56.70949598 47.39717814 52.78365962 45.07658695 48.85546875 42.7590332 C47.09100521 41.71746642 45.32766812 40.67398917 43.56542969 39.62866211 C37.49773901 36.03163144 31.40283867 32.48442465 25.29003906 28.96459961 C23.05771285 27.67850498 20.82752107 26.38869756 18.59960938 25.0949707 C13.70333873 22.2556366 8.80179196 19.45692319 3.79638672 16.81396484 C2.99305908 16.37785889 2.18973145 15.94175293 1.36206055 15.49243164 C-0.09730939 14.70289001 -1.56965769 13.93666302 -3.05639648 13.19995117 C-4.97314453 12.14599609 -4.97314453 12.14599609 -7.77783203 9.70458984 C-8.57533088 6.66291434 -8.2941861 4.91709647 -7.77783203 1.70458984 C-4.65374068 -0.37813773 -3.59443176 -0.65122646 0 0 Z " fill="#5489E2" transform="translate(50.77783203125,31.29541015625)"/>
<path d="M0 0 C2.9961947 1.31540255 4.16266421 2.16064185 5.5625 5.125 C5.48301582 8.30436713 4.93581549 9.70207029 2.82836914 12.08959961 C0.45559529 14.22103109 -1.83370596 15.66161917 -4.62890625 17.19140625 C-5.645896 17.75335693 -6.66288574 18.31530762 -7.71069336 18.89428711 C-8.79616455 19.48604736 -9.88163574 20.07780762 -11 20.6875 C-13.28444807 21.94944631 -15.56829779 23.21247636 -17.8515625 24.4765625 C-19.54007324 25.40903809 -19.54007324 25.40903809 -21.26269531 26.36035156 C-25.49528464 28.71294735 -29.6909642 31.12485239 -33.875 33.5625 C-34.61339111 33.99232178 -35.35178223 34.42214355 -36.11254883 34.86499023 C-37.67846843 35.77655012 -39.24430201 36.68825779 -40.81005859 37.60009766 C-43.82348882 39.34901841 -46.84295627 41.08723256 -49.86328125 42.82421875 C-50.98476562 43.46939453 -52.10625 44.11457031 -53.26171875 44.77929688 C-55.52583281 46.08174334 -57.79015212 47.38383309 -60.0546875 48.68554688 C-66.82034471 52.58446852 -73.55387223 56.52790155 -80.16308594 60.68798828 C-82.85408608 62.34768256 -84.20152626 63.125 -87.4375 63.125 C-87.80276253 60.79645135 -88.13100684 58.46201038 -88.4375 56.125 C-88.56125 55.238125 -88.685 54.35125 -88.8125 53.4375 C-88.24936917 49.96485986 -86.23238038 49.16331055 -83.4375 47.125 C-81.38175055 45.83600236 -79.30132303 44.58586947 -77.203125 43.3671875 C-76.61276962 43.02272079 -76.02241425 42.67825409 -75.41416931 42.323349 C-73.50741818 41.21184419 -71.59749404 40.10592115 -69.6875 39 C-68.3608422 38.22787296 -67.03442751 37.45532807 -65.70825195 36.68237305 C-63.10742478 35.16692808 -60.50558251 33.65325244 -57.90283203 32.14111328 C-53.80047449 29.75638869 -49.71107606 27.34999325 -45.625 24.9375 C-37.76120118 20.30299141 -29.87350174 15.70949519 -21.9831543 11.12036133 C-21.02062744 10.55986084 -20.05810059 9.99936035 -19.06640625 9.421875 C-18.12885498 8.87708496 -17.19130371 8.33229492 -16.2253418 7.77099609 C-14.34210347 6.65909551 -12.4712759 5.52594273 -10.61254883 4.37353516 C-9.28453247 3.55054932 -9.28453247 3.55054932 -7.9296875 2.7109375 C-7.14577637 2.2164209 -6.36186523 1.7219043 -5.55419922 1.21240234 C-3.4375 0.125 -3.4375 0.125 0 0 Z " fill="#36C2D7" transform="translate(154.4375,89.875)"/>
<path d="M0 0 C2 0.66666667 4 1.33333333 6 2 C6.91289795 2.25499268 6.91289795 2.25499268 7.84423828 2.51513672 C15.26071983 4.70544133 21.74768439 8.51094477 28.4375 12.3125 C29.61225088 12.9713799 30.78737945 13.62958688 31.96289062 14.28710938 C35.31895687 16.1738343 38.66102432 18.08322769 42 20 C43.00305176 20.56509277 44.00610352 21.13018555 45.03955078 21.71240234 C46.39862549 22.49478271 46.39862549 22.49478271 47.78515625 23.29296875 C48.57929932 23.74567139 49.37344238 24.19837402 50.19165039 24.66479492 C52 26 52 26 53 29 C51.77730619 29.82220849 50.54648216 30.63233234 49.3125 31.4375 C48.62800781 31.88996094 47.94351563 32.34242187 47.23828125 32.80859375 C44.66716209 34.17716503 42.91240769 34.74644124 40 35 C37.17260742 33.81591797 37.17260742 33.81591797 34.10546875 31.9921875 C32.98462891 31.33476563 31.86378906 30.67734375 30.70898438 30 C29.53500307 29.29192058 28.3611759 28.58358553 27.1875 27.875 C26.02616435 27.18879302 24.86406083 26.50388384 23.70117188 25.8203125 C21.46418145 24.49734739 19.2332935 23.1639976 17.00927734 21.81933594 C15.17028617 20.70752657 13.32339451 19.60849353 11.46337891 18.53222656 C6.21549121 15.43965784 6.21549121 15.43965784 4.98120117 12.92138672 C4.10141715 10.64432277 4.10141715 10.64432277 1 10 C0.61781233 8.34385343 0.28604898 6.67542976 0 5 C0.33 4.67 0.66 4.34 1 4 C0.34 3.34 -0.32 2.68 -1 2 C-0.67 1.34 -0.34 0.68 0 0 Z " fill="#41B7D5" transform="translate(94,59)"/>
<path d="M0 0 C0.495 0.99 0.495 0.99 1 2 C-4.75 6 -4.75 6 -7 6 C-7 6.99 -7 7.98 -7 9 C-9.64 9.66 -12.28 10.32 -15 11 C-14.505 14.465 -14.505 14.465 -14 18 C-10.87615527 17.62719548 -7.93560704 17.15694274 -5 16 C-3.60380471 13.06201446 -3.60380471 13.06201446 -3 10 C-1.0625 8.5625 -1.0625 8.5625 1 8 C1.99 8.33 2.98 8.66 4 9 C4.99 8.67 5.98 8.34 7 8 C10 7 10 7 13 8 C10.37517395 9.52113413 7.7501521 11.0419287 5.125 12.5625 C4.2887207 13.04702637 3.45244141 13.53155273 2.59082031 14.03076172 C-2.44309694 16.9457595 -7.48097621 19.85371079 -12.5234375 22.75390625 C-14.76563626 24.04425126 -17.00782371 25.33461593 -19.25 26.625 C-20.35915771 27.26260254 -21.46831543 27.90020508 -22.61108398 28.55712891 C-29.37885101 32.45706157 -36.11439826 36.40165907 -42.72558594 40.56298828 C-45.41658608 42.22268256 -46.76402626 43 -50 43 C-50.36526253 40.67145135 -50.69350684 38.33701038 -51 36 C-51.12375 35.113125 -51.2475 34.22625 -51.375 33.3125 C-50.81186917 29.83985986 -48.79488038 29.03831055 -46 27 C-43.94425055 25.71100236 -41.86382303 24.46086947 -39.765625 23.2421875 C-38.87846046 22.72453575 -38.87846046 22.72453575 -37.97337341 22.19642639 C-36.06772142 21.08556125 -34.15890557 19.980263 -32.25 18.875 C-30.94092116 18.11312545 -29.63208407 17.35083536 -28.32348633 16.58813477 C-25.74023365 15.08294997 -23.15595051 13.57956081 -20.57080078 12.07763672 C-15.93290514 9.38145818 -11.30890974 6.66181797 -6.6875 3.9375 C-5.35809908 3.15490348 -4.02867535 2.37234569 -2.69921875 1.58984375 C-1.80847656 1.06519531 -0.91773438 0.54054688 0 0 Z " fill="#3CB3DC" transform="translate(117,110)"/>
<path d="M0 0 C0.495 1.98 0.495 1.98 1 4 C0.443125 4.226875 -0.11375 4.45375 -0.6875 4.6875 C-3.15862516 5.94780476 -3.15862516 5.94780476 -5.25 8.3125 C-8.49995753 11.48859486 -13.20097971 16 -18 16 C-18.0825 17.051875 -18.165 18.10375 -18.25 19.1875 C-19.18798218 23.95557607 -20.8853695 26.41402713 -24.75 29.3125 C-29.33718003 30.71413834 -33.42553553 30.62978579 -37.8125 28.875 C-41.40037194 25.79968119 -42.76150084 22.63542281 -43.4375 18 C-42.86194625 14.05334571 -41.56674431 12.03956563 -39 9 C-35.41832786 6.53262586 -33.67682607 5.95411349 -29.3125 6.25 C-26 7 -26 7 -23 8 C-19.88239718 6.59626205 -19.88239718 6.59626205 -16.5625 4.625 C-10.53854077 1.18469564 -6.90675741 -0.15697176 0 0 Z M-33 15 C-34.12516085 16.83284443 -34.12516085 16.83284443 -35 19 C-34.67 19.99 -34.34 20.98 -34 22 C-32.1477633 23.00478037 -32.1477633 23.00478037 -30 23 C-28.22809091 21.64555699 -28.22809091 21.64555699 -27 20 C-27.66 18.35 -28.32 16.7 -29 15 C-30.32 15 -31.64 15 -33 15 Z " fill="#34CCD4" transform="translate(74,163)"/>
<path d="M0 0 C4.0973728 1.2701818 7.76379566 2.79688438 11.53515625 4.8359375 C12.58268066 5.40038574 13.63020508 5.96483398 14.70947266 6.54638672 C15.81597168 7.1498291 16.9224707 7.75327148 18.0625 8.375 C19.20251465 8.99262207 20.3425293 9.61024414 21.51708984 10.24658203 C32.10225644 16.00518358 42.57823034 21.95114175 53 28 C53 28.66 53 29.32 53 30 C50.95027548 28.97513774 48.92428655 27.95640741 46.9375 26.8125 C44.84615294 25.68544646 44.84615294 25.68544646 42 27 C42.11306697 28.95894361 42.11306697 28.95894361 43 31 C45.49034386 32.29660434 45.49034386 32.29660434 48 33 C47.505 33.99 47.505 33.99 47 35 C34.66856794 28.37814055 22.3725725 21.70073428 10.1875 14.8125 C9.21031006 14.26053955 8.23312012 13.7085791 7.22631836 13.13989258 C3.75068341 11.16798659 0.3261589 9.21743927 -3 7 C-1.125 2.25 -1.125 2.25 0 0 Z " fill="#548AD8" transform="translate(55,17)"/>
<path d="M0 0 C0.99 0.66 1.98 1.32 3 2 C3.86365454 8.47740904 3.86365454 8.47740904 1.9453125 11.859375 C0.625 13.5 0.625 13.5 -2 16 C-2.66 16 -3.32 16 -4 16 C-3.99555878 16.7684877 -3.99111755 17.5369754 -3.98654175 18.32875061 C-3.94615341 25.63799412 -3.9158594 32.9471821 -3.89637566 40.25650883 C-3.88602157 44.01260779 -3.87201941 47.76861311 -3.84912109 51.5246582 C-3.8270889 55.16217888 -3.81536878 58.79961057 -3.81024551 62.43719292 C-3.80660337 63.81197952 -3.79949498 65.18676231 -3.78853989 66.56151009 C-3.71459368 76.24269423 -4.49858833 85.4554331 -6 95 C-6.33 95 -6.66 95 -7 95 C-7.02685095 92.52076199 -7.04676547 90.0418116 -7.0625 87.5625 C-7.07087891 86.85544922 -7.07925781 86.14839844 -7.08789062 85.41992188 C-7.09653588 83.61306441 -7.05220011 81.80612397 -7 80 C-6.505 79.505 -6.505 79.505 -6 79 C-5.95919217 77.00041636 -5.95745644 74.99954746 -6 73 C-6.66 75.31 -7.32 77.62 -8 80 C-8.33 80 -8.66 80 -9 80 C-9.30738811 71.29920583 -9.60374983 62.5981272 -9.8859272 53.89647865 C-10.01729367 49.85623195 -10.1524968 45.81618881 -10.29638672 41.77636719 C-10.43503358 37.8798202 -10.56370854 33.98306133 -10.68539047 30.08594894 C-10.73364974 28.59703941 -10.78553934 27.10824308 -10.84106827 25.61958694 C-10.91806249 23.53905197 -10.98229346 21.45849334 -11.04345703 19.37744141 C-11.08342804 18.19163483 -11.12339905 17.00582825 -11.1645813 15.78408813 C-11 13 -11 13 -9 11 C-7.68 11 -6.36 11 -5 11 C-5 10.34 -5 9.68 -5 9 C-4.01 9 -3.02 9 -2 9 C-2 6.36 -2 3.72 -2 1 C-1.34 0.67 -0.68 0.34 0 0 Z " fill="#2ECCD6" transform="translate(35,16)"/>
<path d="M0 0 C1.76462683 3.08809695 2 4.23312136 2 8 C1.49887695 8.27038086 0.99775391 8.54076172 0.48144531 8.81933594 C-10.41938023 14.7171522 -21.17239527 20.78692758 -31.72558594 27.29003906 C-32.5199707 27.77569336 -33.31435547 28.26134766 -34.1328125 28.76171875 C-34.83293457 29.19444092 -35.53305664 29.62716309 -36.25439453 30.07299805 C-38 31 -38 31 -40 31 C-40 30.34 -40 29.68 -40 29 C-38.20963542 28.0234375 -36.41927083 27.046875 -34.62890625 26.0703125 C-32.83381685 25.08589976 -32.83381685 25.08589976 -32 23 C-32.99 23.33 -33.98 23.66 -35 24 C-35.99 23.67 -36.98 23.34 -38 23 C-38.33 23.66 -38.66 24.32 -39 25 C-40.32 24.34 -41.64 23.68 -43 23 C-33.25748276 17.20679847 -23.46520188 11.50074037 -13.625 5.875 C-12.62073975 5.29468018 -11.61647949 4.71436035 -10.58178711 4.11645508 C-9.16845093 3.31244263 -9.16845093 3.31244263 -7.7265625 2.4921875 C-6.88689941 2.01120605 -6.04723633 1.53022461 -5.18212891 1.03466797 C-3 0 -3 0 0 0 Z " fill="#538CDF" transform="translate(161,110)"/>
<path d="M0 0 C0.99 0.33 1.98 0.66 3 1 C3 1.66 3 2.32 3 3 C3.66 3 4.32 3 5 3 C5 2.34 5 1.68 5 1 C8.8617903 2.44545725 12.36725026 4.23280784 15.95703125 6.2578125 C17.06884766 6.88300781 18.18066406 7.50820313 19.32617188 8.15234375 C20.48831901 8.8098291 21.65042791 9.46738203 22.8125 10.125 C23.99398189 10.79064641 25.175621 11.45601384 26.35742188 12.12109375 C29.23983905 13.74465934 32.12062331 15.37105015 35 17 C31.77175904 18.05056979 31.25413826 18.12177459 28 16.5625 C27.01 16.046875 26.02 15.53125 25 15 C23.68 15 22.36 15 21 15 C21.99 15.66 22.98 16.32 24 17 C23.34 17.33 22.68 17.66 22 18 C22 19.65 22 21.3 22 23 C22.61875 23.12375 23.2375 23.2475 23.875 23.375 C26 24 26 24 28 26 C25 27 25 27 21.64453125 25.34765625 C20.36110983 24.59622298 19.08393866 23.83403499 17.8125 23.0625 C17.15830078 22.67642578 16.50410156 22.29035156 15.83007812 21.89257812 C14.21464684 20.93746912 12.60659475 19.96989934 11 19 C11.66 18.67 12.32 18.34 13 18 C13 17.34 13 16.68 13 16 C12.05125 15.71125 11.1025 15.4225 10.125 15.125 C7 14 7 14 5 12 C3.824375 11.54625 2.64875 11.0925 1.4375 10.625 C-2 9 -2 9 -2.9375 6.8125 C-2.958125 6.214375 -2.97875 5.61625 -3 5 C-2.34 5 -1.68 5 -1 5 C-0.67 3.35 -0.34 1.7 0 0 Z " fill="#4C9ADC" transform="translate(73,46)"/>
<path d="M0 0 C0.33 0 0.66 0 1 0 C1.04241723 2.33294775 1.04092937 4.66702567 1 7 C0.67 7.33 0.34 7.66 0 8 C-0.07179964 9.51928038 -0.08392007 11.04167482 -0.0625 12.5625 C-0.05347656 13.38878906 -0.04445313 14.21507813 -0.03515625 15.06640625 C-0.02355469 15.70449219 -0.01195312 16.34257813 0 17 C0.33 17 0.66 17 1 17 C2.39316405 27.6882541 2.11148475 38.43396127 2.0625 49.1875 C2.05747525 51.11262904 2.05291406 53.03775936 2.04882812 54.96289062 C2.03789915 59.64195884 2.0206882 64.32096517 2 69 C0.35 69 -1.3 69 -3 69 C-3.04646363 61.16750629 -3.08194021 53.33504525 -3.10362434 45.50244808 C-3.1140348 41.86494495 -3.12814357 38.22753653 -3.15087891 34.59008789 C-3.1727055 31.07579691 -3.1845892 27.56159669 -3.18975449 24.04724312 C-3.19521541 22.06262847 -3.21081255 20.07805002 -3.22659302 18.0934906 C-3.22734225 12.03888466 -3.22009111 6.6771786 -1 1 C-0.67 0.67 -0.34 0.34 0 0 Z " fill="#4D95E4" transform="translate(29,88)"/>
<path d="M0 0 C2.20562038 1.92510507 2.35156123 3.50258729 2.56640625 6.3671875 C2.23640625 7.0271875 1.90640625 7.6871875 1.56640625 8.3671875 C-1.49609375 8.9921875 -1.49609375 8.9921875 -4.43359375 9.3671875 C-4.76359375 10.3571875 -5.09359375 11.3471875 -5.43359375 12.3671875 C-6.54734375 12.4909375 -6.54734375 12.4909375 -7.68359375 12.6171875 C-10.5157256 13.13794221 -10.5157256 13.13794221 -12.21484375 15.2109375 C-14.82666849 17.74918972 -17.40511683 19.04922028 -20.68359375 20.6171875 C-21.76125 21.13796875 -22.83890625 21.65875 -23.94921875 22.1953125 C-25.17898437 22.77539062 -25.17898437 22.77539062 -26.43359375 23.3671875 C-27.75359375 22.3771875 -29.07359375 21.3871875 -30.43359375 20.3671875 C-25.90978423 15.59205522 -25.90978423 15.59205522 -23.18359375 14.3046875 C-22.60609375 13.9953125 -22.02859375 13.6859375 -21.43359375 13.3671875 C-21.07197346 12.04124645 -20.73631336 10.70780293 -20.43359375 9.3671875 C-19.44359375 9.0371875 -18.45359375 8.7071875 -17.43359375 8.3671875 C-17.43359375 7.7071875 -17.43359375 7.0471875 -17.43359375 6.3671875 C-15.02526483 5.13905957 -12.6093805 3.93490335 -10.18359375 2.7421875 C-9.50167969 2.3915625 -8.81976563 2.0409375 -8.1171875 1.6796875 C-3.03258056 -0.7885683 -3.03258056 -0.7885683 0 0 Z " fill="#29D0D9" transform="translate(154.43359375,92.6328125)"/>
<path d="M0 0 C1.231394 3.69418201 0.64432764 6.2056261 0 10 C0.33 9.67 0.66 9.34 1 9 C2.2375 8.71125 3.475 8.4225 4.75 8.125 C7.56793206 7.46580518 9.23123416 6.85810631 11.75 5.3125 C14 4 14 4 16.140625 4.41796875 C16.75421875 4.61003906 17.3678125 4.80210937 18 5 C17.27409668 5.4031543 16.54819336 5.80630859 15.80029297 6.22167969 C13.08188339 7.73301645 10.36475144 9.2466192 7.6484375 10.76171875 C5.90460841 11.73350016 4.15934715 12.70271016 2.4140625 13.671875 C1.30546875 14.290625 0.196875 14.909375 -0.9453125 15.546875 C-1.96125488 16.11245117 -2.97719727 16.67802734 -4.02392578 17.26074219 C-7.08711966 18.99900562 -7.08711966 18.99900562 -10.19091797 21.21582031 C-13 23 -13 23 -16 23 C-16.36526253 20.67145135 -16.69350684 18.33701038 -17 16 C-17.185625 14.6696875 -17.185625 14.6696875 -17.375 13.3125 C-16.81153023 9.83776974 -14.79875352 9.03718794 -12 7 C-9.91740424 5.71438254 -7.81248272 4.46427584 -5.6875 3.25 C-4.61886719 2.63640625 -3.55023438 2.0228125 -2.44921875 1.390625 C-1.64097656 0.93171875 -0.83273438 0.4728125 0 0 Z " fill="#4D97DC" transform="translate(83,130)"/>
<path d="M0 0 C1.65 0 3.3 0 5 0 C5 0.66 5 1.32 5 2 C5.721875 2.103125 6.44375 2.20625 7.1875 2.3125 C10.27793421 3.06793947 12.41743841 4.15531315 15 6 C15 6.66 15 7.32 15 8 C17.475 8.495 17.475 8.495 20 9 C20 9.66 20 10.32 20 11 C21.65 11 23.3 11 25 11 C25.5321441 13.08047297 26.05031786 15.16452293 26.5625 17.25 C26.85253906 18.41015625 27.14257812 19.5703125 27.44140625 20.765625 C27.95179964 23.72090983 28.02996165 25.24434101 27 28 C26.01 27.67 25.02 27.34 24 27 C24 26.34 24 25.68 24 25 C22.35 24.67 20.7 24.34 19 24 C18.938125 22.7625 18.87625 21.525 18.8125 20.25 C18.39450899 16.91784632 18.16498177 16.17414743 15.75 13.625 C13.19430885 12.11481887 10.77230482 11.03961431 8 10 C6.31970006 9.02308143 4.65071396 8.02611949 3 7 C2.34 6.67 1.68 6.34 1 6 C1 5.34 1 4.68 1 4 C0.34 4 -0.32 4 -1 4 C-0.67 2.68 -0.34 1.36 0 0 Z " fill="#2CD0D7" transform="translate(143,68)"/>
<path d="M0 0 C3.72433382 1.2125738 7.37802806 2.50859979 11 4 C11 4.66 11 5.32 11 6 C11.86625 6.0825 12.7325 6.165 13.625 6.25 C18.35211773 7.30047061 21.6014777 9.6014777 25 13 C15.78152017 19.19902738 15.78152017 19.19902738 12 19 C8.8125 16.625 8.8125 16.625 6 14 C5.34 13.67 4.68 13.34 4 13 C4 11.68 4 10.36 4 9 C3.01 8.67 2.02 8.34 1 8 C-0.1875 4.4375 -0.1875 4.4375 -1 1 C-0.67 0.67 -0.34 0.34 0 0 Z " fill="#2BCCD8" transform="translate(122,75)"/>
<path d="M0 0 C6.625 -0.25 6.625 -0.25 10 2 C11.65549531 2.38499891 13.3222433 2.72793135 15 3 C15.34717213 6.73210035 15.2922789 8.54070458 13.25 11.75 C9.73367913 15.26632087 8.09619302 15.91300055 3.0625 16.3125 C-0.72776772 16.19273318 -3.05155934 15.52723485 -6 13 C-8.65423853 8.881354 -9.3477436 5.86841035 -9 1 C-7 3 -7 3 -6 6 C-5.34 6.33 -4.68 6.66 -4 7 C-3.34 5.68 -2.68 4.36 -2 3 C-2 3.99 -2 4.98 -2 6 C-1.34 6 -0.68 6 0 6 C0 6.66 0 7.32 0 8 C1.98 8 3.96 8 6 8 C5.67 6.02 5.34 4.04 5 2 C3.35 2 1.7 2 0 2 C0 1.34 0 0.68 0 0 Z " fill="#568DDD" transform="translate(40,177)"/>
<path d="M0 0 C0.66 0.33 1.32 0.66 2 1 C0.6057454 4.42608975 -0.71406546 5.74063915 -3.97265625 7.4453125 C-5.18659058 8.09391235 -5.18659058 8.09391235 -6.42504883 8.75561523 C-7.29540771 9.20751221 -8.1657666 9.65940918 -9.0625 10.125 C-10.88136621 11.09548929 -12.69905486 12.06818841 -14.515625 13.04296875 C-15.43279297 13.5332959 -16.34996094 14.02362305 -17.29492188 14.52880859 C-21.35685743 16.7379443 -25.3385409 19.07465369 -29.3125 21.4375 C-29.98611572 21.83791504 -30.65973145 22.23833008 -31.35375977 22.65087891 C-31.99627686 23.0329248 -32.63879395 23.4149707 -33.30078125 23.80859375 C-33.91518066 24.17194824 -34.52958008 24.53530273 -35.16259766 24.90966797 C-36.42170138 25.6568321 -37.67639762 26.41145951 -38.92724609 27.17236328 C-43.6680973 30 -43.6680973 30 -47 30 C-48.15941038 26.52176885 -47.70820884 24.54104422 -47 21 C-46.01 21.99 -45.02 22.98 -44 24 C-43.34 22.35 -42.68 20.7 -42 19 C-41.34 19 -40.68 19 -40 19 C-40 18.34 -40 17.68 -40 17 C-38.02 17.33 -36.04 17.66 -34 18 C-34 18.66 -34 19.32 -34 20 C-32.20112771 19.09755571 -30.41109185 18.17748214 -28.625 17.25 C-27.62726563 16.73953125 -26.62953125 16.2290625 -25.6015625 15.703125 C-22.85362152 13.90417265 -22.30028042 12.89221253 -21 10 C-18 9 -18 9 -14.9375 8.8125 C-9.67901984 8.13689227 -5.22530507 5.05160922 -1 2 C-0.67 1.34 -0.34 0.68 0 0 Z " fill="#5880CD" transform="translate(118,95)"/>
<path d="M0 0 C5.36363636 2.68181818 5.36363636 2.68181818 6.875 5.8125 C6.91625 6.534375 6.9575 7.25625 7 8 C7.12375 9.670625 7.12375 9.670625 7.25 11.375 C6.97923223 15.30113263 5.9712563 17.63243715 4 21 C5.32 21 6.64 21 8 21 C8 17.37 8 13.74 8 10 C8.33 10 8.66 10 9 10 C9 14.29 9 18.58 9 23 C5.37 23 1.74 23 -2 23 C-1.67 22.01 -1.34 21.02 -1 20 C-0.01 20 0.98 20 2 20 C1.73323796 18.01508358 1.73323796 18.01508358 1 16 C0.01 15.67 -0.98 15.34 -2 15 C-2 13.02 -2 11.04 -2 9 C-2.99 8.67 -3.98 8.34 -5 8 C-5 7.01 -5 6.02 -5 5 C-5.99 5 -6.98 5 -8 5 C-8 4.01 -8 3.02 -8 2 C-8.99 1.67 -9.98 1.34 -11 1 C-7.52779078 -0.73610461 -3.79625758 -0.46497786 0 0 Z " fill="#4C92D0" transform="translate(178,75)"/>
<path d="M0 0 C2.63804589 -0.39397335 2.63804589 -0.39397335 5 -1 C5.66 -1 6.32 -1 7 -1 C6.375 0.875 6.375 0.875 5 3 C3.4840625 3.495 3.4840625 3.495 1.9375 4 C0.968125 4.33 -0.00125 4.66 -1 5 C-1.11980225 5.61391602 -1.23960449 6.22783203 -1.36303711 6.86035156 C-2.3195598 10.07344658 -4.24130354 10.65645002 -7.12890625 12.234375 C-8.16337891 12.80800781 -9.19785156 13.38164062 -10.26367188 13.97265625 C-11.35228516 14.55917969 -12.44089844 15.14570313 -13.5625 15.75 C-14.65498047 16.35199219 -15.74746094 16.95398438 -16.87304688 17.57421875 C-19.57582147 19.0613349 -22.28470877 20.53590029 -25 22 C-25.33 21.01 -25.66 20.02 -26 19 C-25.24074219 18.59007812 -24.48148437 18.18015625 -23.69921875 17.7578125 C-22.70535156 17.21898437 -21.71148437 16.68015625 -20.6875 16.125 C-19.70136719 15.59132812 -18.71523437 15.05765625 -17.69921875 14.5078125 C-14.90413542 12.99277874 -14.90413542 12.99277874 -12 11 C-13.95216435 9.04783565 -15.53199953 8.15173355 -18 7 C-15.94803718 5.62701756 -13.88595971 4.27730838 -11.8125 2.9375 C-10.9452832 2.35258789 -10.9452832 2.35258789 -10.06054688 1.75585938 C-6.26816716 -0.6652644 -4.29836202 -1.37787215 0 0 Z " fill="#48A2D0" transform="translate(122,134)"/>
<path d="M0 0 C5.60476823 1.57804154 10.35050626 4.26416385 15.375 7.125 C16.20644531 7.59292969 17.03789063 8.06085937 17.89453125 8.54296875 C19.93234954 9.69070549 21.96735569 10.84313282 24 12 C23.67 12.66 23.34 13.32 23 14 C20.69 13.67 18.38 13.34 16 13 C15.67 13.99 15.34 14.98 15 16 C10.46152802 14.65072455 6.68067754 12.80840652 2.625 10.375 C1.56539062 9.74335938 0.50578125 9.11171875 -0.5859375 8.4609375 C-1.38257813 7.97882812 -2.17921875 7.49671875 -3 7 C-1.125 2.25 -1.125 2.25 0 0 Z " fill="#5A85E3" transform="translate(55,17)"/>
<path d="M0 0 C4.75481646 0.57634139 7.97048212 2.55068521 12 5 C12.33 4.34 12.66 3.68 13 3 C16.75260578 5.09954446 20.50161404 7.20543239 24.25 9.3125 C25.84521484 10.20485352 25.84521484 10.20485352 27.47265625 11.11523438 C29.00986328 11.98051758 29.00986328 11.98051758 30.578125 12.86328125 C31.52075195 13.39219971 32.46337891 13.92111816 33.43457031 14.46606445 C35.75376278 15.85276852 37.87650451 17.33309973 40 19 C36.19021034 18.32768418 32.66555798 17.22185266 29 16 C28.34 16 27.68 16 27 16 C27 15.01 27 14.02 27 13 C26.21625 13.020625 25.4325 13.04125 24.625 13.0625 C22 13 22 13 20 12 C18.68 12 17.36 12 16 12 C15.67 12.99 15.34 13.98 15 15 C13.7260098 14.23439544 12.45593488 13.46227374 11.1875 12.6875 C10.47980469 12.25824219 9.77210937 11.82898437 9.04296875 11.38671875 C7.09893395 10.06715402 5.60705149 8.70292672 4 7 C3.278125 6.34 2.55625 5.68 1.8125 5 C0 3 0 3 0 0 Z " fill="#44A9DD" transform="translate(96,42)"/>
<path d="M0 0 C0.33 0.66 0.66 1.32 1 2 C2.65 2 4.3 2 6 2 C5.4740625 2.8971875 5.4740625 2.8971875 4.9375 3.8125 C3.66695302 6.10813214 3.66695302 6.10813214 5 9 C2.39761208 10.48237286 -0.20678228 11.96100131 -2.8125 13.4375 C-3.55048828 13.85837891 -4.28847656 14.27925781 -5.04882812 14.71289062 C-5.76103516 15.11572266 -6.47324219 15.51855469 -7.20703125 15.93359375 C-8.18893433 16.4913147 -8.18893433 16.4913147 -9.19067383 17.06030273 C-11 18 -11 18 -14 19 C-14 17.68 -14 16.36 -14 15 C-12.68 14.67 -11.36 14.34 -10 14 C-10 13.01 -10 12.02 -10 11 C-13.3 11.66 -16.6 12.32 -20 13 C-17.56726239 10.56726239 -15.87503297 9.19080856 -12.98828125 7.51953125 C-12.23095703 7.07802734 -11.47363281 6.63652344 -10.69335938 6.18164062 C-9.51483398 5.50391602 -9.51483398 5.50391602 -8.3125 4.8125 C-7.11657227 4.11737305 -7.11657227 4.11737305 -5.89648438 3.40820312 C-3.93336513 2.26794823 -1.96785129 1.13206227 0 0 Z " fill="#41C0D1" transform="translate(84,152)"/>
<path d="M0 0 C3.49039065 0.78232894 5.71547109 1.78464652 8.625 3.8125 C6.625 4.8125 6.625 4.8125 3.625 5.8125 C3.955 6.8025 4.285 7.7925 4.625 8.8125 C5.945 8.4825 7.265 8.1525 8.625 7.8125 C8.625 9.4625 8.625 11.1125 8.625 12.8125 C7.635 13.1425 6.645 13.4725 5.625 13.8125 C7.605 14.4725 9.585 15.1325 11.625 15.8125 C11.625 16.4725 11.625 17.1325 11.625 17.8125 C13.275 18.4725 14.925 19.1325 16.625 19.8125 C14.14483095 20.71838986 12.95539253 20.92812271 10.42675781 20.04321289 C7.89047518 18.68464071 5.37535011 17.29875919 2.875 15.875 C1.98683594 15.41287109 1.09867188 14.95074219 0.18359375 14.47460938 C-5.99611328 10.97657245 -5.99611328 10.97657245 -7.05664062 7.71826172 C-7.140625 5.55859375 -7.140625 5.55859375 -6.375 1.8125 C-3.375 -0.1875 -3.375 -0.1875 0 0 Z " fill="#5E7EE0" transform="translate(49.375,31.1875)"/>
<path d="M0 0 C0.33 0.99 0.66 1.98 1 3 C3.00016466 4.20882096 3.00016466 4.20882096 5 5 C4.34 6.32 3.68 7.64 3 9 C2.34 9 1.68 9 1 9 C1.33 9.99 1.66 10.98 2 12 C-4.99829642 16.17206133 -4.99829642 16.17206133 -9 17 C-10.3479743 17.63654342 -11.68596724 18.29605388 -13 19 C-13 14.38049686 -12.98388167 10.251175 -11 6 C-7.58660449 3.37153053 -3.97324664 1.63447939 0 0 Z " fill="#44A6E1" transform="translate(95,123)"/>
<path d="M0 0 C3.79049707 1.42749981 7.27122456 3.16236542 10.8125 5.125 C12.27623047 5.93324219 12.27623047 5.93324219 13.76953125 6.7578125 C14.87361328 7.37269531 14.87361328 7.37269531 16 8 C12.25 9.125 12.25 9.125 10 8 C10 7.34 10 6.68 10 6 C5.545 5.01 5.545 5.01 1 4 C1.08378906 5.48113281 1.16757813 6.96226563 1.25390625 8.48828125 C1.35707192 10.42967152 1.45992001 12.37107869 1.5625 14.3125 C1.61857422 15.28896484 1.67464844 16.26542969 1.73242188 17.27148438 C1.78076172 18.20927734 1.82910156 19.14707031 1.87890625 20.11328125 C1.94960327 21.40939331 1.94960327 21.40939331 2.02172852 22.73168945 C2 25 2 25 1 28 C1.66 28 2.32 28 3 28 C4.33257403 40.66970387 4.33257403 40.66970387 3 46 C1.515 46.495 1.515 46.495 0 47 C-0.80510681 44.16584323 -1.12620576 41.64910835 -1.12939453 38.70629883 C-1.13254669 37.86895706 -1.13569885 37.0316153 -1.13894653 36.16889954 C-1.1369223 35.273983 -1.13489807 34.37906647 -1.1328125 33.45703125 C-1.13376923 32.53282883 -1.13472595 31.6086264 -1.13571167 30.65641785 C-1.13639118 28.70722383 -1.13455287 26.75802754 -1.13037109 24.80883789 C-1.12500137 21.81326272 -1.13033318 18.81783625 -1.13671875 15.82226562 C-1.13605829 13.92968717 -1.13477778 12.0371088 -1.1328125 10.14453125 C-1.13483673 9.24354202 -1.13686096 8.3425528 -1.13894653 7.41426086 C-1.11496205 1.11496205 -1.11496205 1.11496205 0 0 Z " fill="#51C0CF" transform="translate(71,68)"/>
<path d="M0 0 C0 0.99 0 1.98 0 3 C0.83144531 2.68482422 0.83144531 2.68482422 1.6796875 2.36328125 C4.80453209 1.8740379 6.32920544 2.76456575 9.125 4.1875 C9.99382812 4.61417969 10.86265625 5.04085937 11.7578125 5.48046875 C14.1855431 7.12574263 14.9693101 8.29588661 16 11 C14.25 12.125 14.25 12.125 12 13 C10.25 12.25 10.25 12.25 8 11 C6.824375 10.7525 5.64875 10.505 4.4375 10.25 C-1.21564375 8.9462504 -6.03342351 5.90325611 -11 3 C-11 1.68 -11 0.36 -11 -1 C-6.99799622 -2.60080151 -3.95443764 -1.29279692 0 0 Z " fill="#37B8DC" transform="translate(123,55)"/>
<path d="M0 0 C2.64 0.33 5.28 0.66 8 1 C8 1.66 8 2.32 8 3 C6.35 3.66 4.7 4.32 3 5 C3.03029297 5.80888672 3.06058594 6.61777344 3.09179688 7.45117188 C4.06091616 34.30323088 4.11071842 61.13289739 4 88 C3.34 88 2.68 88 2 88 C1.9845388 86.49996178 1.9845388 86.49996178 1.96876526 84.96961975 C1.87120196 75.56625227 1.76848454 66.1629535 1.66066074 56.75969791 C1.60538873 51.92486463 1.55196203 47.09002535 1.50268555 42.25512695 C1.45510493 37.59317516 1.40276467 32.93129933 1.34705925 28.26943779 C1.32660704 26.48677895 1.3078988 24.70409925 1.29092598 22.92140388 C1.26694514 20.43328399 1.2368824 17.94530902 1.20532227 15.45727539 C1.1995668 14.71281158 1.19381134 13.96834778 1.18788147 13.20132446 C1.4355069 9.81286517 1.4355069 9.81286517 0 7 C-0.04092937 4.66702567 -0.04241723 2.33294775 0 0 Z " fill="#39A0BE" transform="translate(22,24)"/>
<path d="M0 0 C0.66 0 1.32 0 2 0 C2.8093022 6.91119868 3.19245098 13.73013968 3.1875 20.6875 C3.18814453 21.63705566 3.18878906 22.58661133 3.18945312 23.56494141 C3.13040175 31.51406172 2.36585575 39.1707197 1 47 C0.67 47 0.34 47 0 47 C-0.02685095 44.52076199 -0.04676547 42.0418116 -0.0625 39.5625 C-0.07506836 38.50192383 -0.07506836 38.50192383 -0.08789062 37.41992188 C-0.09653588 35.61306441 -0.05220011 33.80612397 0 32 C0.33 31.67 0.66 31.34 1 31 C1.04080783 29.00041636 1.04254356 26.99954746 1 25 C0.34 27.31 -0.32 29.62 -1 32 C-1.33 32 -1.66 32 -2 32 C-2.04938628 27.76417673 -2.08571263 23.52850535 -2.10986328 19.29248047 C-2.11992963 17.85104453 -2.1335838 16.40962905 -2.15087891 14.96826172 C-2.17510012 12.89806066 -2.18647641 10.82812924 -2.1953125 8.7578125 C-2.20578613 7.5114502 -2.21625977 6.26508789 -2.22705078 4.98095703 C-2 2 -2 2 0 0 Z " fill="#29BCE8" transform="translate(28,64)"/>
<path d="M0 0 C1.258125 0.12375 2.51625 0.2475 3.8125 0.375 C4.87404297 0.47941406 4.87404297 0.47941406 5.95703125 0.5859375 C8 1 8 1 11 3 C12.30219007 3.42853389 13.61651695 3.82097025 14.9375 4.1875 C21.13988206 6.15261115 26.49360627 9.59926614 32 13 C31.67 13.66 31.34 14.32 31 15 C30.34 15 29.68 15 29 15 C28.4225 14.38125 27.845 13.7625 27.25 13.125 C24.63886247 10.65892567 22.42988945 9.93542439 19 9 C19 8.34 19 7.68 19 7 C18.37351563 6.86722656 17.74703125 6.73445313 17.1015625 6.59765625 C16.28429687 6.42105469 15.46703125 6.24445313 14.625 6.0625 C13.81289062 5.88847656 13.00078125 5.71445313 12.1640625 5.53515625 C10 5 10 5 8 4 C8.59861742 6.35171131 9.26924352 8.6859378 10 11 C10.66 11.33 11.32 11.66 12 12 C12 13.32 12 14.64 12 16 C14.475 16.99 14.475 16.99 17 18 C16.34 18.33 15.68 18.66 15 19 C12.43359375 17.99609375 12.43359375 17.99609375 9.4375 16.4375 C8.44621094 15.94121094 7.45492187 15.44492188 6.43359375 14.93359375 C4 13 4 13 3.16015625 9.78515625 C3.10730469 8.86605469 3.05445312 7.94695312 3 7 C2.01 7 1.02 7 0 7 C0 6.01 0 5.02 0 4 C-0.66 4 -1.32 4 -2 4 C-1.34 2.68 -0.68 1.36 0 0 Z " fill="#3FC1D5" transform="translate(114,72)"/>
<path d="M0 0 C2.97 1.65 5.94 3.3 9 5 C8.67 5.66 8.34 6.32 8 7 C6 7 6 7 4.5 5.5625 C4.005 5.046875 3.51 4.53125 3 4 C2.34 3.67 1.68 3.34 1 3 C1.33 39.3 1.66 75.6 2 113 C3.98 113.66 5.96 114.32 8 115 C8 115.33 8 115.66 8 116 C5.125 116.125 5.125 116.125 2 116 C-0.45912888 113.54087112 -0.25737838 112.85836317 -0.28520203 109.4763031 C-0.29781067 108.52419952 -0.31041931 107.57209595 -0.32341003 106.59114075 C-0.32714127 105.54326889 -0.3308725 104.49539703 -0.3347168 103.41577148 C-0.34636871 102.31493225 -0.35802063 101.21409302 -0.37002563 100.07989502 C-0.40612647 96.42697699 -0.42790872 92.77412576 -0.44921875 89.12109375 C-0.47045668 86.59285376 -0.49242308 84.06461979 -0.51509094 81.53639221 C-0.56055378 76.23270088 -0.5995701 70.9290202 -0.63305664 65.62524414 C-0.67187893 59.48578187 -0.72114776 53.34647453 -0.77638692 47.20713943 C-0.82935304 41.3093177 -0.87646061 35.41146226 -0.92057228 29.51356697 C-0.93968744 26.99961445 -0.96005386 24.48567113 -0.98166466 21.97173882 C-1.01067839 18.46611613 -1.03306924 14.96051597 -1.0534668 11.45483398 C-1.06327072 10.4049379 -1.07307465 9.35504181 -1.08317566 8.27333069 C-1.08732483 7.32404694 -1.091474 6.37476318 -1.0957489 5.39671326 C-1.1014474 4.56693183 -1.1071459 3.7371504 -1.11301708 2.88222408 C-1 1 -1 1 0 0 Z " fill="#576BAC" transform="translate(43,47)"/>
<path d="M0 0 C0.7940625 -0.01417969 1.588125 -0.02835938 2.40625 -0.04296875 C4.5 0.1875 4.5 0.1875 6.5 2.1875 C3.53 2.8475 0.56 3.5075 -2.5 4.1875 C-2.5 4.8475 -2.5 5.5075 -2.5 6.1875 C-1.18 6.5175 0.14 6.8475 1.5 7.1875 C-0.15 7.5175 -1.8 7.8475 -3.5 8.1875 C-3.5 10.1675 -3.5 12.1475 -3.5 14.1875 C-4.49 14.1875 -5.48 14.1875 -6.5 14.1875 C-6.5 16.4975 -6.5 18.8075 -6.5 21.1875 C-10.00602745 17.79457021 -11.37799287 16.40757131 -11.875 11.4375 C-11.85058775 8.08691932 -11.25601354 6.33855468 -9.125 3.75 C-5.83638228 0.5396827 -4.4496615 0.03611738 0 0 Z " fill="#528FCA" transform="translate(28.5,9.8125)"/>
<path d="M0 0 C1.9375 1.75 1.9375 1.75 3 4 C2.92079286 7.1682857 2.37666615 8.57199945 0.28027344 10.95410156 C-2.15893236 13.1425967 -4.55908332 14.64393518 -7.421875 16.234375 C-8.44667969 16.80800781 -9.47148437 17.38164063 -10.52734375 17.97265625 C-11.59082031 18.55917969 -12.65429688 19.14570312 -13.75 19.75 C-14.82894531 20.35199219 -15.90789062 20.95398438 -17.01953125 21.57421875 C-19.67641928 23.05549261 -22.33659288 24.5304902 -25 26 C-25 23 -25 23 -23 21 C-20.98615882 19.96371089 -18.9370257 19.03390689 -16.875 18.09765625 C-14.68226731 16.99769991 -14.68226731 16.99769991 -13 14 C-11.33499557 13.65846063 -9.66821323 13.32550502 -8 13 C-7.484375 12.484375 -6.96875 11.96875 -6.4375 11.4375 C-5.963125 10.963125 -5.48875 10.48875 -5 10 C-3.68 10 -2.36 10 -1 10 C-1 8.02 -1 6.04 -1 4 C-2.63997379 2.67673237 -2.63997379 2.67673237 -5 2 C-8.0516563 3.11573046 -8.0516563 3.11573046 -11.125 4.9375 C-13.05495984 6.01101067 -15.00873103 7.04500366 -17 8 C-17.66 7.67 -18.32 7.34 -19 7 C-16.97044407 5.62387677 -14.92963266 4.27524452 -12.875 2.9375 C-12.30523437 2.54755859 -11.73546875 2.15761719 -11.1484375 1.75585938 C-7.0579589 -0.87041382 -4.65155428 -1.47850564 0 0 Z " fill="#45C6C5" transform="translate(157,91)"/>
<path d="M0 0 C2 0.66666667 4 1.33333333 6 2 C7.11955078 2.34417969 7.11955078 2.34417969 8.26171875 2.6953125 C12.33823901 3.975542 15.77860238 5.05872391 19 8 C18.195625 8.144375 17.39125 8.28875 16.5625 8.4375 C14.07896294 8.74135249 14.07896294 8.74135249 13 10 C12.34 10 11.68 10 11 10 C11.34786708 11.97536745 11.34786708 11.97536745 12 14 C12.66 14.33 13.32 14.66 14 15 C11.33333333 15 8.66666667 15 6 15 C5.731875 14.360625 5.46375 13.72125 5.1875 13.0625 C4.11332248 10.66868314 4.11332248 10.66868314 1 10 C0.61781233 8.34385343 0.28604898 6.67542976 0 5 C0.33 4.67 0.66 4.34 1 4 C0.34 3.34 -0.32 2.68 -1 2 C-0.67 1.34 -0.34 0.68 0 0 Z " fill="#40AFDC" transform="translate(94,59)"/>
<path d="M0 0 C0.72445312 0.39832031 1.44890625 0.79664063 2.1953125 1.20703125 C7.09133453 3.89005132 11.97918814 6.55744288 17 9 C15.375 9.6875 15.375 9.6875 13 10 C10.98347806 9.0337499 8.98320018 8.03291676 7 7 C5.68 7 4.36 7 3 7 C3.99 7.66 4.98 8.32 6 9 C5.01 9.495 5.01 9.495 4 10 C4 11.65 4 13.3 4 15 C4.61875 15.12375 5.2375 15.2475 5.875 15.375 C8 16 8 16 10 18 C7 19 7 19 3.64453125 17.34765625 C2.36110983 16.59622298 1.08393866 15.83403499 -0.1875 15.0625 C-1.16879883 14.48338867 -1.16879883 14.48338867 -2.16992188 13.89257812 C-3.78535316 12.93746912 -5.39340525 11.96989934 -7 11 C-6.34 10.67 -5.68 10.34 -5 10 C-4.67 9.34 -4.34 8.68 -4 8 C-3 6 -3 6 -1 5 C-0.34444881 2.47266765 -0.34444881 2.47266765 0 0 Z " fill="#43A9DB" transform="translate(91,54)"/>
<path d="M0 0 C1.75 1.4375 1.75 1.4375 2.5625 3.9375 C2.75 6.4375 2.75 6.4375 1.75 8.4375 C-1.3125 9.0625 -1.3125 9.0625 -4.25 9.4375 C-4.58 10.4275 -4.91 11.4175 -5.25 12.4375 C-8.8125 13.625 -8.8125 13.625 -12.25 14.4375 C-12.91 12.1275 -13.57 9.8175 -14.25 7.4375 C-13.46625 7.375625 -12.6825 7.31375 -11.875 7.25 C-11.00875 6.981875 -10.1425 6.71375 -9.25 6.4375 C-8.56867549 4.77677151 -7.90257873 3.109733 -7.25 1.4375 C-4.5066978 -0.22291976 -3.13493326 -0.78373331 0 0 Z " fill="#1FDED8" transform="translate(154.25,92.5625)"/>
<path d="M0 0 C2.475 0.99 2.475 0.99 5 2 C3.68 2.33 2.36 2.66 1 3 C1 38.31 1 73.62 1 110 C0.67 110 0.34 110 0 110 C0 73.7 0 37.4 0 0 Z " fill="#617AD8" transform="translate(44,50)"/>
<path d="M0 0 C1.32 0 2.64 0 4 0 C4 0.99 4 1.98 4 3 C4.99 3 5.98 3 7 3 C7 3.99 7 4.98 7 6 C6.01 6.495 6.01 6.495 5 7 C4.34444881 9.52733235 4.34444881 9.52733235 4 12 C6.97 12.33 9.94 12.66 13 13 C13.33 14.65 13.66 16.3 14 18 C13.01 18.33 12.02 18.66 11 19 C10.67 19.99 10.34 20.98 10 22 C5.27536912 21.53680089 1.82942948 20.90108294 -2 18 C-2 17.34 -2 16.68 -2 16 C-1.01 16 -0.02 16 1 16 C1 16.66 1 17.32 1 18 C1.99 18 2.98 18 4 18 C3.34 12.72 2.68 7.44 2 2 C1.34 2 0.68 2 0 2 C0 1.34 0 0.68 0 0 Z " fill="#48B7C0" transform="translate(166,77)"/>
<path d="M0 0 C1.32 0 2.64 0 4 0 C4.09930108 8.29715665 4.08275785 16.58506189 3.6875 24.875 C3.62949219 26.19242188 3.57148438 27.50984375 3.51171875 28.8671875 C3.34285156 29.90101562 3.17398437 30.93484375 3 32 C2.01 32.66 1.02 33.32 0 34 C0 22.78 0 11.56 0 0 Z " fill="#23D7DB" transform="translate(26,32)"/>
<path d="M0 0 C21.77979157 10.64114182 21.77979157 10.64114182 28 15 C28 15.66 28 16.32 28 17 C25.95027548 15.97513774 23.92428655 14.95640741 21.9375 13.8125 C19.84615294 12.68544646 19.84615294 12.68544646 17 14 C17.11306697 15.95894361 17.11306697 15.95894361 18 18 C20.49034386 19.29660434 20.49034386 19.29660434 23 20 C22.67 20.66 22.34 21.32 22 22 C17.71 19.69 13.42 17.38 9 15 C9.99 14.01 10.98 13.02 12 12 C11.34 10.35 10.68 8.7 10 7 C7.69 6.67 5.38 6.34 3 6 C3 5.34 3 4.68 3 4 C2.01 3.34 1.02 2.68 0 2 C0 1.34 0 0.68 0 0 Z " fill="#5195CA" transform="translate(80,30)"/>
<path d="M0 0 C0.763125 0.20625 1.52625 0.4125 2.3125 0.625 C1.3125 2.625 1.3125 2.625 -1.125 3.875 C-4.35583631 6.0814248 -4.7775106 7.90231611 -5.6875 11.625 C-8.9875 12.285 -12.2875 12.945 -15.6875 13.625 C-16.375 10.8125 -16.375 10.8125 -16.6875 7.625 C-14.71153976 5.05311524 -12.72181628 4.06819195 -9.6875 3.0625 C-0.38969872 -0.05437657 -0.38969872 -0.05437657 0 0 Z " fill="#37B9DF" transform="translate(117.6875,115.375)"/>
<path d="M0 0 C0.66 0.33 1.32 0.66 2 1 C0.58160638 4.54128116 -0.86856894 5.82391189 -4.21875 7.5859375 C-5.06469727 8.03928467 -5.91064453 8.49263184 -6.78222656 8.9597168 C-7.6790918 9.42676025 -8.57595703 9.89380371 -9.5 10.375 C-11.31845604 11.34625765 -13.13617291 12.31890054 -14.953125 13.29296875 C-15.82517578 13.75751465 -16.69722656 14.22206055 -17.59570312 14.70068359 C-21.82170231 16.98447397 -25.92435134 19.45808228 -30 22 C-30.66 21.34 -31.32 20.68 -32 20 C-31.37351562 19.61328125 -30.74703125 19.2265625 -30.1015625 18.828125 C-29.28429687 18.30734375 -28.46703125 17.7865625 -27.625 17.25 C-26.81289062 16.73953125 -26.00078125 16.2290625 -25.1640625 15.703125 C-22.87805131 13.90402594 -22.2374751 12.56103543 -21 10 C-18 9 -18 9 -14.9375 8.8125 C-9.67901984 8.13689227 -5.22530507 5.05160922 -1 2 C-0.67 1.34 -0.34 0.68 0 0 Z " fill="#4C96CC" transform="translate(118,95)"/>
<path d="M0 0 C1.98 0.99 3.96 1.98 6 3 C6 3.99 6 4.98 6 6 C5.34 6 4.68 6 4 6 C4 5.34 4 4.68 4 4 C3.34 4 2.68 4 2 4 C1.34 5.32 0.68 6.64 0 8 C-0.66 8 -1.32 8 -2 8 C-1.4818964 9.9648239 -1.4818964 9.9648239 0 12 C2.29598193 13.08301035 4.63477442 14.07796291 7 15 C8.6829392 15.97236487 10.35443434 16.96564444 12 18 C12.66 18.33 13.32 18.66 14 19 C14 19.66 14 20.32 14 21 C8.67501327 20.49844814 4.64794605 17.65564273 0.1875 14.9375 C-0.99489258 14.22883789 -0.99489258 14.22883789 -2.20117188 13.50585938 C-4.13812608 12.34368685 -6.07078295 11.17495583 -8 10 C-7.34 9.67 -6.68 9.34 -6 9 C-6 7.68 -6 6.36 -6 5 C-5.38125 4.731875 -4.7625 4.46375 -4.125 4.1875 C-1.7004767 3.04443152 -1.7004767 3.04443152 0 0 Z " fill="#5093DB" transform="translate(72,43)"/>
<path d="M0 0 C2.4375 1.375 2.4375 1.375 4 4 C4.8813214 8.40660699 5.04528905 12.29309737 2.6484375 16.20703125 C1.17608083 17.92012871 -0.32091254 19.4908202 -2 21 C-2.33 20.01 -2.66 19.02 -3 18 C-2.34 17.505 -1.68 17.01 -1 16.5 C1.8827217 12.89659788 1.30200997 10.53014958 1 6 C-0.32 5.67 -1.64 5.34 -3 5 C-3 7.64 -3 10.28 -3 13 C-3.99 12.67 -4.98 12.34 -6 12 C-5.814375 11.236875 -5.62875 10.47375 -5.4375 9.6875 C-4.77180827 6.91032625 -4.77180827 6.91032625 -6 4 C-7.32 4 -8.64 4 -10 4 C-10 3.34 -10 2.68 -10 2 C-6.2794164 -0.48038907 -4.40203429 -0.46337203 0 0 Z " fill="#46ABD0" transform="translate(36,12)"/>
<path d="M0 0 C1.22589844 0.01353516 1.22589844 0.01353516 2.4765625 0.02734375 C3.41628906 0.04474609 3.41628906 0.04474609 4.375 0.0625 C4.375 1.0525 4.375 2.0425 4.375 3.0625 C5.014375 3.35125 5.65375 3.64 6.3125 3.9375 C8.375 5.0625 8.375 5.0625 9.375 7.0625 C9.44450541 8.60273996 9.45952357 10.14584988 9.4375 11.6875 C9.42847656 12.50476563 9.41945312 13.32203125 9.41015625 14.1640625 C9.39855469 14.79054688 9.38695312 15.41703125 9.375 16.0625 C7.82928722 13.74393083 6.57881448 11.55611571 5.375 9.0625 C5.045 11.0425 4.715 13.0225 4.375 15.0625 C3.715 15.0625 3.055 15.0625 2.375 15.0625 C2.375 13.0825 2.375 11.1025 2.375 9.0625 C1.385 8.7325 0.395 8.4025 -0.625 8.0625 C-0.625 7.0725 -0.625 6.0825 -0.625 5.0625 C-1.615 5.0625 -2.605 5.0625 -3.625 5.0625 C-3.625 4.0725 -3.625 3.0825 -3.625 2.0625 C-4.615 1.7325 -5.605 1.4025 -6.625 1.0625 C-4.21954362 -0.14022819 -2.67503047 -0.03821472 0 0 Z " fill="#5197CE" transform="translate(173.625,74.9375)"/>
<path d="M0 0 C1.76462683 3.08809695 2 4.23312136 2 8 C-1.20726751 9.77276876 -4.41600247 11.54286506 -7.625 13.3125 C-8.52863281 13.81201172 -9.43226563 14.31152344 -10.36328125 14.82617188 C-14.86823294 17.30882774 -19.37468257 19.7488073 -24 22 C-22.82810537 18.4843161 -22.26719127 18.29259282 -19.140625 16.58984375 C-18.35429687 16.15736328 -17.56796875 15.72488281 -16.7578125 15.27929688 C-15.51644531 14.61510742 -15.51644531 14.61510742 -14.25 13.9375 C-13.43789062 13.49083984 -12.62578125 13.04417969 -11.7890625 12.58398438 C-7.93471095 10.48417885 -4.14045155 8.48955269 0 7 C-0.33 6.01 -0.66 5.02 -1 4 C-3.92879371 4.62759865 -6.36095629 5.58622659 -9 7 C-9 5.68 -9 4.36 -9 3 C-3.375 0 -3.375 0 0 0 Z " fill="#526EBE" transform="translate(161,110)"/>
<path d="M0 0 C10.99662162 3.40371622 10.99662162 3.40371622 13.375 7.1875 C13.58125 7.785625 13.7875 8.38375 14 9 C11.61732777 10.52120264 10.50477199 11.09416755 7.67578125 10.56640625 C5.24193915 9.53252622 3.13064058 8.57425873 1 7 C-0.0625 3.25 -0.0625 3.25 0 0 Z " fill="#38BDD8" transform="translate(125,57)"/>
<path d="M0 0 C6.75 0.875 6.75 0.875 9 2 C9 2.66 9 3.32 9 4 C9.969375 4.12375 10.93875 4.2475 11.9375 4.375 C13.4534375 4.684375 13.4534375 4.684375 15 5 C15.33 5.66 15.66 6.32 16 7 C18.01669827 8.13350534 18.01669827 8.13350534 20 9 C20 9.66 20 10.32 20 11 C15.9642154 9.77987907 12.44593665 8.46138332 9 6 C8.67 5.01 8.34 4.02 8 3 C6.35 3.33 4.7 3.66 3 4 C2.67 7.63 2.34 11.26 2 15 C0 13 0 13 -0.1953125 9.9609375 C-0.17210938 8.77757813 -0.14890625 7.59421875 -0.125 6.375 C-0.10695313 5.18648438 -0.08890625 3.99796875 -0.0703125 2.7734375 C-0.04710938 1.85820313 -0.02390625 0.94296875 0 0 Z " fill="#2ED1D7" transform="translate(72,72)"/>
<path d="M0 0 C0.33 0 0.66 0 1 0 C1 1.65 1 3.3 1 5 C1.66 5.33 2.32 5.66 3 6 C3.02705729 7.77074917 3.04642195 9.54161711 3.0625 11.3125 C3.07410156 12.29863281 3.08570313 13.28476563 3.09765625 14.30078125 C3 17 3 17 2 20 C-0.28515625 21.38671875 -0.28515625 21.38671875 -3.0625 22.6875 C-4.44115234 23.34298828 -4.44115234 23.34298828 -5.84765625 24.01171875 C-6.55792969 24.33785156 -7.26820312 24.66398437 -8 25 C-8 22 -8 22 -6 20 C-4.68 20 -3.36 20 -2 20 C-0.65044348 15.95133044 -0.97753944 12.24522024 -1.0625 8.0078125 C-1.00414448 5.19945301 -0.64396463 2.72678771 0 0 Z " fill="#5A8FD9" transform="translate(59,138)"/>
<path d="M0 0 C0.721875 0.185625 1.44375 0.37125 2.1875 0.5625 C5.1472232 1.02290139 7.11630565 0.70143917 10 0 C10.66 0 11.32 0 12 0 C11.01958581 2.45103548 10.3486182 3.76758786 8.125 5.25 C6 6 6 6 2 6 C2 6.66 2 7.32 2 8 C0.35 7.67 -1.3 7.34 -3 7 C-3 6.01 -3 5.02 -3 4 C-2.34 4 -1.68 4 -1 4 C-0.67 2.68 -0.34 1.36 0 0 Z " fill="#43A4DD" transform="translate(117,133)"/>
<path d="M0 0 C0.66 0.33 1.32 0.66 2 1 C1 2 0 3 -1 4 C-1.845625 4.86625 -2.69125 5.7325 -3.5625 6.625 C-6.21110845 9.20569541 -7.52381266 9.84127089 -11 11 C-11.33 11.66 -11.66 12.32 -12 13 C-12.99 12.67 -13.98 12.34 -15 12 C-15.33 12.66 -15.66 13.32 -16 14 C-17.32 13.34 -18.64 12.68 -20 12 C-19.50072998 11.70754395 -19.00145996 11.41508789 -18.48706055 11.11376953 C-16.2199984 9.78510193 -13.95374197 8.45506602 -11.6875 7.125 C-10.90181641 6.66480469 -10.11613281 6.20460938 -9.30664062 5.73046875 C-8.1706543 5.06337891 -8.1706543 5.06337891 -7.01171875 4.3828125 C-6.31522217 3.97434082 -5.61872559 3.56586914 -4.90112305 3.14501953 C-3.2382901 2.14351876 -1.61512455 1.0767497 0 0 Z " fill="#4C94D6" transform="translate(138,121)"/>
<path d="M0 0 C0.33 0 0.66 0 1 0 C1.22304384 12.51962211 1.15649645 24.6386543 -1 37 C-1.33 37 -1.66 37 -2 37 C-2.02685095 34.52076199 -2.04676547 32.0418116 -2.0625 29.5625 C-2.07506836 28.50192383 -2.07506836 28.50192383 -2.08789062 27.41992188 C-2.09653588 25.61306441 -2.05220011 23.80612397 -2 22 C-1.67 21.67 -1.34 21.34 -1 21 C-0.95919217 19.00041636 -0.95745644 16.99954746 -1 15 C-1.66 17.31 -2.32 19.62 -3 22 C-3.33 22 -3.66 22 -4 22 C-4 18.7 -4 15.4 -4 12 C-3.34 12 -2.68 12 -2 12 C-2 11.34 -2 10.68 -2 10 C-1.34 10 -0.68 10 0 10 C0 6.7 0 3.4 0 0 Z " fill="#3BAEE4" transform="translate(30,74)"/>
<path d="M0 0 C0.8353125 0.37125 0.8353125 0.37125 1.6875 0.75 C1.6875 1.74 1.6875 2.73 1.6875 3.75 C-0.4296875 5.35546875 -0.4296875 5.35546875 -3.1875 6.9375 C-4.09242188 7.46730469 -4.99734375 7.99710938 -5.9296875 8.54296875 C-8.3125 9.75 -8.3125 9.75 -10.3125 9.75 C-10.3125 8.76 -10.3125 7.77 -10.3125 6.75 C-10.9725 6.42 -11.6325 6.09 -12.3125 5.75 C-11.5 3.8125 -11.5 3.8125 -10.3125 1.75 C-9.3225 1.42 -8.3325 1.09 -7.3125 0.75 C-7.3125 1.74 -7.3125 2.73 -7.3125 3.75 C-6.57 3.069375 -5.8275 2.38875 -5.0625 1.6875 C-2.3125 -0.25 -2.3125 -0.25 0 0 Z " fill="#5B80D8" transform="translate(159.3125,113.25)"/>
<path d="M0 0 C5.60476823 1.57804154 10.35050626 4.26416385 15.375 7.125 C16.20644531 7.59292969 17.03789063 8.06085937 17.89453125 8.54296875 C19.93234954 9.69070549 21.96735569 10.84313282 24 12 C23.67 12.66 23.34 13.32 23 14 C21.91460937 13.37351562 20.82921875 12.74703125 19.7109375 12.1015625 C18.26578523 11.2757612 16.82046373 10.450256 15.375 9.625 C14.66214844 9.2125 13.94929688 8.8 13.21484375 8.375 C9.22419422 6.10508926 5.44270238 4.27534989 1 3 C0.67 3.99 0.34 4.98 0 6 C1.65 6.99 3.3 7.98 5 9 C4.67 9.66 4.34 10.32 4 11 C0.535 9.02 0.535 9.02 -3 7 C-1.125 2.25 -1.125 2.25 0 0 Z " fill="#5A74BE" transform="translate(55,17)"/>
<path d="M0 0 C0.66 0 1.32 0 2 0 C3.33257403 12.66970387 3.33257403 12.66970387 2 18 C1.01 18.33 0.02 18.66 -1 19 C-2.06723961 15.53777385 -2.10173486 12.35960734 -2.0625 8.75 C-2.04896484 7.13351563 -2.04896484 7.13351563 -2.03515625 5.484375 C-2.02355469 4.66453125 -2.01195313 3.8446875 -2 3 C-1.34 3 -0.68 3 0 3 C0 2.01 0 1.02 0 0 Z " fill="#5494D6" transform="translate(72,96)"/>
<path d="M0 0 C9.09752086 4.49739425 18.14016196 9.04449737 27 14 C24 15 24 15 21.0625 13.5625 C20.051875 13.046875 19.04125 12.53125 18 12 C16.68 12 15.36 12 14 12 C14 11.01 14 10.02 14 9 C13.2575 9.04125 12.515 9.0825 11.75 9.125 C8.91241048 8.99601866 7.41226062 8.42948778 5 7 C5 6.34 5 5.68 5 5 C4.175 4.505 3.35 4.01 2.5 3.5 C1.675 3.005 0.85 2.51 0 2 C0 1.34 0 0.68 0 0 Z " fill="#4FABC8" transform="translate(109,46)"/>
<path d="M0 0 C0.33 0.99 0.66 1.98 1 3 C-2 5 -2 5 -5 5 C-3.62514468 6.54166642 -3.62514468 6.54166642 -2 8 C-1.34 8 -0.68 8 0 8 C-0.1875 9.875 -0.1875 9.875 -1 12 C-3.5625 13.25 -3.5625 13.25 -6 14 C-6.99 13.01 -7.98 12.02 -9 11 C-8.01 11 -7.02 11 -6 11 C-6 10.34 -6 9.68 -6 9 C-7.32 8.67 -8.64 8.34 -10 8 C-8.76736651 4.30209954 -7.79947549 4.0645154 -4.4375 2.3125 C-3.61121094 1.87550781 -2.78492187 1.43851563 -1.93359375 0.98828125 C-1.29550781 0.66214844 -0.65742187 0.33601562 0 0 Z " fill="#44B0CC" transform="translate(95,146)"/>
<path d="M0 0 C0.66 0 1.32 0 2 0 C2.5321441 2.08047297 3.05031786 4.16452293 3.5625 6.25 C3.85253906 7.41015625 4.14257812 8.5703125 4.44140625 9.765625 C4.95179964 12.72090983 5.02996165 14.24434101 4 17 C3.01 16.67 2.02 16.34 1 16 C1 15.34 1 14.68 1 14 C-0.65 13.67 -2.3 13.34 -4 13 C-4.625 10.125 -4.625 10.125 -5 7 C-4.34 6.34 -3.68 5.68 -3 5 C-2.67 6.98 -2.34 8.96 -2 11 C-0.68 11 0.64 11 2 11 C1.855625 10.37351562 1.71125 9.74703125 1.5625 9.1015625 C1.376875 8.28429687 1.19125 7.46703125 1 6.625 C0.7215625 5.40683594 0.7215625 5.40683594 0.4375 4.1640625 C0 2 0 2 0 0 Z " fill="#27C5D2" transform="translate(166,79)"/>
<path d="M0 0 C6.625 -0.25 6.625 -0.25 10 2 C11.65549531 2.38499891 13.3222433 2.72793135 15 3 C15 4.98 15 6.96 15 9 C14.01 9.33 13.02 9.66 12 10 C12 9.34 12 8.68 12 8 C11.01 8.33 10.02 8.66 9 9 C7 8 7 8 5.875 4.9375 C5.58625 3.968125 5.2975 2.99875 5 2 C3.35 2 1.7 2 0 2 C0 1.34 0 0.68 0 0 Z " fill="#4F9EC5" transform="translate(40,177)"/>
<path d="M0 0 C0.33 0.66 0.66 1.32 1 2 C2.65 2 4.3 2 6 2 C5.67 2.598125 5.34 3.19625 5 3.8125 C3.79212012 6.05386471 3.79212012 6.05386471 4 9 C2.8553125 9.2165625 2.8553125 9.2165625 1.6875 9.4375 C-1.08172908 9.9632594 -1.08172908 9.9632594 -4 11 C-4.66 10.67 -5.32 10.34 -6 10 C-4.75023244 6.34683329 -4.32901247 5.21934164 -1 3 C-0.67 2.01 -0.34 1.02 0 0 Z " fill="#32C5DA" transform="translate(84,152)"/>
<path d="M0 0 C2 2 2 2 3 5 C3.66 5.33 4.32 5.66 5 6 C5.66 4.68 6.32 3.36 7 2 C7 2.99 7 3.98 7 5 C7.66 5.33 8.32 5.66 9 6 C8.67 7.98 8.34 9.96 8 12 C6.68 12.33 5.36 12.66 4 13 C1.04952165 8.38987758 -0.5497272 5.63470383 0 0 Z " fill="#469DDB" transform="translate(31,178)"/>
<path d="M0 0 C1.98 0.66 3.96 1.32 6 2 C6 2.99 6 3.98 6 5 C6.33 5.66 6.66 6.32 7 7 C6.67 7.66 6.34 8.32 6 9 C6.94875 9.0825 7.8975 9.165 8.875 9.25 C12 10 12 10 13.375 12.0625 C13.58125 12.701875 13.7875 13.34125 14 14 C10.51329166 12.8905928 7.22515763 11.73662334 4 10 C4 9.01 4 8.02 4 7 C2.7934375 6.566875 2.7934375 6.566875 1.5625 6.125 C-1 5 -1 5 -2 3 C-1.34 2.01 -0.68 1.02 0 0 Z " fill="#5A79E1" transform="translate(56,19)"/>
<path d="M0 0 C3.465 1.485 3.465 1.485 7 3 C6.87890625 4.765625 6.87890625 4.765625 6 7 C3.27734375 8.921875 3.27734375 8.921875 -0.0625 10.75 C-1.71958984 11.67039062 -1.71958984 11.67039062 -3.41015625 12.609375 C-4.26480469 13.06828125 -5.11945313 13.5271875 -6 14 C-6.33 13.01 -6.66 12.02 -7 11 C-5.58480285 8.9656541 -4.45017877 8.09589607 -2.01953125 7.578125 C-0.01823046 7.33726048 1.9909944 7.16467259 4 7 C3.67 6.34 3.34 5.68 3 5 C2.34 5 1.68 5 1 5 C0.67 3.35 0.34 1.7 0 0 Z " fill="#44A8DC" transform="translate(111,91)"/>
<path d="M0 0 C0.69867188 0.2165625 1.39734375 0.433125 2.1171875 0.65625 C3.02726562 0.9346875 3.93734375 1.213125 4.875 1.5 C5.77992187 1.7784375 6.68484375 2.056875 7.6171875 2.34375 C9.90944647 3.08850794 9.90944647 3.08850794 12 3 C12 3.99 12 4.98 12 6 C12.99 6 13.98 6 15 6 C15.66 7.65 16.32 9.3 17 11 C12.46152802 9.65072455 8.68067754 7.80840652 4.625 5.375 C3.56539063 4.74335937 2.50578125 4.11171875 1.4140625 3.4609375 C0.61742188 2.97882813 -0.17921875 2.49671875 -1 2 C-0.67 1.34 -0.34 0.68 0 0 Z " fill="#4BB7D2" transform="translate(102,73)"/>
<path d="M0 0 C0.33 1.32 0.66 2.64 1 4 C0.34 4 -0.32 4 -1 4 C-1 4.66 -1 5.32 -1 6 C-5.455 7.485 -5.455 7.485 -10 9 C-10.99 7.35 -11.98 5.7 -13 4 C-12.22914062 3.79503906 -11.45828125 3.59007812 -10.6640625 3.37890625 C-9.66117188 3.10949219 -8.65828125 2.84007812 -7.625 2.5625 C-6.62726562 2.29566406 -5.62953125 2.02882812 -4.6015625 1.75390625 C-2.04582299 1.09815644 -2.04582299 1.09815644 0 0 Z " fill="#26DBD8" transform="translate(63,169)"/>
<path d="M0 0 C1.96534541 0.90153459 3.92210625 1.82180109 5.875 2.75 C7.51082031 3.51570313 7.51082031 3.51570313 9.1796875 4.296875 C12.04928616 6.02976283 13.10736633 6.80663448 14 10 C13.67 10.99 13.34 11.98 13 13 C13 12.34 13 11.68 13 11 C10.69 11 8.38 11 6 11 C5.62875 9.329375 5.62875 9.329375 5.25 7.625 C4.38994661 3.95384802 4.38994661 3.95384802 1.875 2.5625 C1.25625 2.376875 0.6375 2.19125 0 2 C0 1.34 0 0.68 0 0 Z " fill="#2CC3DB" transform="translate(87,77)"/>
<path d="M0 0 C3.49039065 0.78232894 5.71547109 1.78464652 8.625 3.8125 C7.635 4.3075 7.635 4.3075 6.625 4.8125 C6.068125 4.503125 5.51125 4.19375 4.9375 3.875 C1.78446578 2.4263086 -0.94967347 2.68075667 -4.375 2.8125 C-5.04654684 5.09591743 -5.04654684 5.09591743 -4.375 7.8125 C-1.89446058 9.82521839 0.80140062 11.33137086 3.625 12.8125 C3.295 13.4725 2.965 14.1325 2.625 14.8125 C-0.345 13.1625 -3.315 11.5125 -6.375 9.8125 C-6.66796875 3.7578125 -6.66796875 3.7578125 -6.375 1.8125 C-3.375 -0.1875 -3.375 -0.1875 0 0 Z " fill="#5D76B8" transform="translate(49.375,31.1875)"/>
<path d="M0 0 C4.88685062 0.61751054 8.79792333 1.12802465 12.0625 5.0625 C14 8 14 8 14 9 C11.36 9 8.72 9 6 9 C5.67 8.01 5.34 7.02 5 6 C4.154375 5.505 3.30875 5.01 2.4375 4.5 C1.633125 4.005 0.82875 3.51 0 3 C0 2.01 0 1.02 0 0 Z " fill="#4C9CE2" transform="translate(81,35)"/>
<path d="M0 0 C1.65 0 3.3 0 5 0 C5.335939 1.4577353 5.66866624 2.91621106 6 4.375 C6.185625 5.18710938 6.37125 5.99921875 6.5625 6.8359375 C7 9 7 9 7 11 C5.68 11 4.36 11 3 11 C2.67 9.02 2.34 7.04 2 5 C1.01 4.67 0.02 4.34 -1 4 C-0.67 2.68 -0.34 1.36 0 0 Z " fill="#12D0DB" transform="translate(161,79)"/>
<path d="M0 0 C0.33 0.66 0.66 1.32 1 2 C1.66 2 2.32 2 3 2 C3.33 3.65 3.66 5.3 4 7 C2.68 7.33 1.36 7.66 0 8 C-0.33 9.32 -0.66 10.64 -1 12 C-1 11.01 -1 10.02 -1 9 C-1.99 9.33 -2.98 9.66 -4 10 C-4.66 8.68 -5.32 7.36 -6 6 C-4.02 5.34 -2.04 4.68 0 4 C0 2.68 0 1.36 0 0 Z " fill="#37BADC" transform="translate(96,145)"/>
<path d="M0 0 C0.33 0 0.66 0 1 0 C1 8.25 1 16.5 1 25 C-0.65 25 -2.3 25 -4 25 C-4 22.69 -4 20.38 -4 18 C-3.67 18.99 -3.34 19.98 -3 21 C-2.34 21 -1.68 21 -1 21 C-1.00523682 20.39937744 -1.01047363 19.79875488 -1.01586914 19.17993164 C-1.03658014 16.47413162 -1.04964125 13.76834823 -1.0625 11.0625 C-1.07087891 10.11697266 -1.07925781 9.17144531 -1.08789062 8.19726562 C-1.09111328 7.29814453 -1.09433594 6.39902344 -1.09765625 5.47265625 C-1.10289307 4.64000244 -1.10812988 3.80734863 -1.11352539 2.94946289 C-1 1 -1 1 0 0 Z " fill="#5D84D9" transform="translate(30,132)"/>
<path d="M0 0 C0.33 0.66 0.66 1.32 1 2 C-4.75 6 -4.75 6 -7 6 C-7 6.99 -7 7.98 -7 9 C-8.59915881 9.69906942 -10.20455045 10.38389468 -11.8125 11.0625 C-12.70582031 11.44535156 -13.59914063 11.82820313 -14.51953125 12.22265625 C-17 13 -17 13 -20 12 C-6.3667426 3.55353075 -6.3667426 3.55353075 0 0 Z " fill="#52ACC4" transform="translate(117,110)"/>
<path d="M0 0 C0.66 0.33 1.32 0.66 2 1 C1.01 3.31 0.02 5.62 -1 8 C0.65 8 2.3 8 4 8 C4 9.32 4 10.64 4 12 C3.01 11.67 2.02 11.34 1 11 C0.67 11.66 0.34 12.32 0 13 C-0.99 12.67 -1.98 12.34 -3 12 C-3.75 8.8125 -3.75 8.8125 -4 5 C-2.0625 2.0625 -2.0625 2.0625 0 0 Z " fill="#4AB7CA" transform="translate(36,171)"/>
<path d="M0 0 C0.66 0.33 1.32 0.66 2 1 C1.51015625 1.37253906 1.0203125 1.74507812 0.515625 2.12890625 C-1.61471371 4.75888625 -1.33259522 6.59652327 -1.25 9.9375 C-1.23453125 10.97777344 -1.2190625 12.01804687 -1.203125 13.08984375 C-1.03175164 15.54509675 -0.70157841 17.65197548 0 20 C-3.50602745 16.60707021 -4.87799287 15.22007131 -5.375 10.25 C-5.35724442 5.38496997 -3.35586916 3.35586916 0 0 Z " fill="#5C85C0" transform="translate(22,11)"/>
<path d="M0 0 C2.31 0 4.62 0 7 0 C7 0.66 7 1.32 7 2 C8.65 2.33 10.3 2.66 12 3 C12 3.66 12 4.32 12 5 C11.34 5 10.68 5 10 5 C10.33 5.99 10.66 6.98 11 8 C9.35 7.67 7.7 7.34 6 7 C5.67 5.68 5.34 4.36 5 3 C4.360625 2.87625 3.72125 2.7525 3.0625 2.625 C2.381875 2.41875 1.70125 2.2125 1 2 C0.67 1.34 0.34 0.68 0 0 Z " fill="#26DBD8" transform="translate(151,74)"/>
<path d="M0 0 C2 2 4 4 6 6 C5.01 6.66 4.02 7.32 3 8 C3.66 8.33 4.32 8.66 5 9 C5 9.66 5 10.32 5 11 C7.475 11.99 7.475 11.99 10 13 C6.53742534 14.15419155 6.02502312 13.8977049 2.875 12.375 C-0.84491979 10.42647059 -0.84491979 10.42647059 -2 7.25 C-2 6.5075 -2 5.765 -2 5 C-1.34 5 -0.68 5 0 5 C0 3.35 0 1.7 0 0 Z " fill="#4D92D4" transform="translate(79,29)"/>
<path d="M0 0 C0.66 0 1.32 0 2 0 C2 0.66 2 1.32 2 2 C2.598125 2.12375 3.19625 2.2475 3.8125 2.375 C6 3 6 3 9 5 C5.6659053 7.19097652 2.95820859 8.43454163 -1 9 C-0.67 6.03 -0.34 3.06 0 0 Z " fill="#5192DF" transform="translate(67,142)"/>
<path d="M0 0 C1.051875 0.61875 2.10375 1.2375 3.1875 1.875 C6.05741223 3.52072432 8.92152924 4.78481417 12 6 C13.68029994 6.97691857 15.34928604 7.97388051 17 9 C17.66 9.33 18.32 9.66 19 10 C19 10.66 19 11.32 19 12 C13.9738891 11.46323088 10.37760591 9.05581499 6.1875 6.4375 C5.49462891 6.01275391 4.80175781 5.58800781 4.08789062 5.15039062 C2.38783049 4.10690544 0.69334524 3.05434704 -1 2 C-0.67 1.34 -0.34 0.68 0 0 Z " fill="#558FC2" transform="translate(67,52)"/>
<path d="M0 0 C2.475 0.99 2.475 0.99 5 2 C5.92017937 10.4690583 5.92017937 10.4690583 3.6640625 14.22265625 C2.18027954 15.91890579 0.67546697 17.49407433 -1 19 C-1.33 18.01 -1.66 17.02 -2 16 C-1.34 15.505 -0.68 15.01 0 14.5 C2.8827217 10.89659788 2.30200997 8.53014958 2 4 C1.01 3.67 0.02 3.34 -1 3 C-0.67 2.01 -0.34 1.02 0 0 Z " fill="#41C0CD" transform="translate(35,14)"/>
<path d="M0 0 C-2.43278544 1.50814743 -4.87066027 3.00664347 -7.3125 4.5 C-8.00279297 4.92925781 -8.69308594 5.35851562 -9.40429688 5.80078125 C-10.07138672 6.20683594 -10.73847656 6.61289063 -11.42578125 7.03125 C-12.03848877 7.40830078 -12.65119629 7.78535156 -13.2824707 8.17382812 C-15 9 -15 9 -18 9 C-17.67 7.35 -17.34 5.7 -17 4 C-16.67 4.66 -16.34 5.32 -16 6 C-15.21625 5.505 -14.4325 5.01 -13.625 4.5 C-11 3 -11 3 -9 3 C-9 2.34 -9 1.68 -9 1 C-5.47051709 -0.66670026 -3.71727674 -1.13583456 0 0 Z " fill="#508FBF" transform="translate(85,144)"/>
<path d="M0 0 C0.66 0.33 1.32 0.66 2 1 C0.64579084 4.24360451 -0.55399159 5.66940274 -3.625 7.359375 C-4.33140625 7.75253906 -5.0378125 8.14570312 -5.765625 8.55078125 C-6.50296875 8.94652344 -7.2403125 9.34226562 -8 9.75 C-8.73734375 10.16121094 -9.4746875 10.57242188 -10.234375 10.99609375 C-15.70328073 14 -15.70328073 14 -18 14 C-18 13.34 -18 12.68 -18 12 C-16.45532227 10.88671875 -16.45532227 10.88671875 -14.31640625 9.6875 C-13.55392578 9.25179687 -12.79144531 8.81609375 -12.00585938 8.3671875 C-11.19955078 7.91601562 -10.39324219 7.46484375 -9.5625 7 C-7.9777539 6.1089781 -6.39557957 5.21336174 -4.81640625 4.3125 C-4.10943604 3.91675781 -3.40246582 3.52101563 -2.67407227 3.11328125 C-0.83952681 2.093331 -0.83952681 2.093331 0 0 Z " fill="#5498BB" transform="translate(118,95)"/>
<path d="M0 0 C0.33 1.32 0.66 2.64 1 4 C-4.31931669 6.05519054 -4.31931669 6.05519054 -7.3125 5.8125 C-7.869375 5.544375 -8.42625 5.27625 -9 5 C-9.33 4.01 -9.66 3.02 -10 2 C-6.5980513 -0.09350689 -3.94727588 -0.17942163 0 0 Z " fill="#2AD0D8" transform="translate(74,163)"/>
<path d="M0 0 C0.92039062 0.28810547 0.92039062 0.28810547 1.859375 0.58203125 C-0.36250427 1.92898918 -2.59179963 3.25944921 -4.828125 4.58203125 C-5.45396484 4.96359375 -6.07980469 5.34515625 -6.72460938 5.73828125 C-10.3362768 7.85611765 -12.92494089 9.09790846 -17.140625 8.58203125 C-16.640625 6.70703125 -16.640625 6.70703125 -15.140625 4.58203125 C-13.16387531 4.03113379 -11.1806164 3.49018958 -9.16796875 3.08984375 C-6.91588259 2.63355398 -6.91588259 2.63355398 -4.390625 0.89453125 C-2.140625 -0.41796875 -2.140625 -0.41796875 0 0 Z " fill="#459DD1" transform="translate(99.140625,134.41796875)"/>
<path d="M0 0 C-6.27 3.63 -12.54 7.26 -19 11 C-19.33 10.01 -19.66 9.02 -20 8 C-17.28246542 6.50583953 -14.56195781 5.01770077 -11.8359375 3.5390625 C-10.23172922 2.66845911 -8.63038882 1.79236982 -7.0390625 0.8984375 C-3.33699324 -1.11233108 -3.33699324 -1.11233108 0 0 Z " fill="#4F9DC1" transform="translate(116,145)"/>
<path d="M0 0 C6.90937997 0.6518283 6.90937997 0.6518283 10 4 C11.7325 4.7425 11.7325 4.7425 13.5 5.5 C16.49364192 6.78298939 18.00645125 7.53738096 20 10 C19.67 10.66 19.34 11.32 19 12 C17.906875 11.29875 16.81375 10.5975 15.6875 9.875 C10.58754966 6.67951944 5.30489484 3.83772867 0 1 C0 0.67 0 0.34 0 0 Z " fill="#53C9CA" transform="translate(142,74)"/>
<path d="M0 0 C0.66 0.33 1.32 0.66 2 1 C-0.45518735 2.50537035 -2.9138452 4.00444426 -5.375 5.5 C-6.07367188 5.92925781 -6.77234375 6.35851562 -7.4921875 6.80078125 C-12.7734375 10 -12.7734375 10 -15 10 C-13.83837867 6.515136 -12.83253266 5.31075033 -10 3 C-6.4375 1.8125 -6.4375 1.8125 -3 1 C-2.01 0.67 -1.02 0.34 0 0 Z " fill="#51A7C5" transform="translate(116,124)"/>
<path d="M0 0 C2.96175123 0.61277612 4.38058783 1.25372522 7 3 C8.71061121 7.19877296 8.70572604 12.27979277 7 16.4375 C6.67 16.953125 6.34 17.46875 6 18 C5.03996427 15.1198928 4.92154198 13.41400117 5 10.4375 C5.12955645 7.08718018 5.12955645 7.08718018 4 4 C1.98330173 2.86649466 1.98330173 2.86649466 0 2 C0 1.34 0 0.68 0 0 Z " fill="#6886BD" transform="translate(177,76)"/>
<path d="M0 0 C1.32 0 2.64 0 4 0 C5.20272819 2.40545638 5.10071472 3.94996953 5.0625 6.625 C5.05347656 7.44226563 5.04445312 8.25953125 5.03515625 9.1015625 C5.02355469 9.72804688 5.01195312 10.35453125 5 11 C3.45428722 8.68143083 2.20381448 6.49361571 1 4 C0.67 5.98 0.34 7.96 0 10 C-0.66 10 -1.32 10 -2 10 C-2 7.69 -2 5.38 -2 3 C-1.34 3 -0.68 3 0 3 C0 2.01 0 1.02 0 0 Z " fill="#6496D8" transform="translate(178,80)"/>
<path d="M0 0 C1.32 0.33 2.64 0.66 4 1 C3.6875 2.875 3.6875 2.875 3 5 C0 7 0 7 -3.1875 6.625 C-4.115625 6.41875 -5.04375 6.2125 -6 6 C-4.625 4.5 -4.625 4.5 -3 3 C-2.34 3 -1.68 3 -1 3 C-0.67 2.01 -0.34 1.02 0 0 Z " fill="#45A2E2" transform="translate(87,55)"/>
<path d="M0 0 C-0.625 1.9375 -0.625 1.9375 -2 4 C-5.125 4.75 -5.125 4.75 -8 5 C-8.33 3.35 -8.66 1.7 -9 0 C-5.93109813 -1.53445094 -3.29905734 -0.54984289 0 0 Z " fill="#5D7DEA" transform="translate(54,34)"/>
<path d="M0 0 C1.32 0.33 2.64 0.66 4 1 C4 2.32 4 3.64 4 5 C1.36 5.33 -1.28 5.66 -4 6 C-4 4.68 -4 3.36 -4 2 C-2.68 2 -1.36 2 0 2 C0 1.34 0 0.68 0 0 Z " fill="#47B5D8" transform="translate(176,90)"/>
<path d="M0 0 C0.66 0 1.32 0 2 0 C1.34 4.95 0.68 9.9 0 15 C-0.66 14.67 -1.32 14.34 -2 14 C-2.05389087 12.04196493 -2.09274217 10.08351091 -2.125 8.125 C-2.14820312 7.03445312 -2.17140625 5.94390625 -2.1953125 4.8203125 C-2 2 -2 2 0 0 Z " fill="#568DE5" transform="translate(22,13)"/>
<path d="M0 0 C0.66 0 1.32 0 2 0 C2 3.3 2 6.6 2 10 C0.68 10 -0.64 10 -2 10 C-2.1953125 3.9453125 -2.1953125 3.9453125 -2 2 C-1.34 1.34 -0.68 0.68 0 0 Z " fill="#2FC4E0" transform="translate(28,64)"/>
<path d="M0 0 C0.99 0 1.98 0 3 0 C2.08486681 2.28783297 1.34515354 3.73449728 -0.625 5.25 C-4.5761945 6.49774563 -9.22561386 6.88719307 -13 5 C-13 4.34 -13 3.68 -13 3 C-12.22914062 3.03480469 -11.45828125 3.06960937 -10.6640625 3.10546875 C-9.15972656 3.14607422 -9.15972656 3.14607422 -7.625 3.1875 C-6.62726562 3.22230469 -5.62953125 3.25710937 -4.6015625 3.29296875 C-3.31378906 3.14794922 -3.31378906 3.14794922 -2 3 C-1.34 2.01 -0.68 1.02 0 0 Z " fill="#627FBA" transform="translate(50,187)"/>
<path d="M0 0 C0.99 0.33 1.98 0.66 3 1 C6.15020361 0.11680706 6.15020361 0.11680706 9 -1 C8.67 -0.34 8.34 0.32 8 1 C7.34 1 6.68 1 6 1 C6 1.66 6 2.32 6 3 C0.36718401 3.2396943 -4.54538831 2.38529821 -10 1 C-6.1184112 -1.58772586 -4.46573523 -0.87719799 0 0 Z " fill="#50C4CA" transform="translate(48,170)"/>
<path d="M0 0 C2.3125 0.1875 2.3125 0.1875 4 1 C4 1.99 4 2.98 4 4 C0.04 5.98 0.04 5.98 -4 8 C-4.33 7.01 -4.66 6.02 -5 5 C-2.75 2.4375 -2.75 2.4375 0 0 Z " fill="#5E7DE4" transform="translate(157,113)"/>
<path d="M0 0 C-1.0975223 2.99324263 -1.67682892 3.84610901 -4.625 5.25 C-5.40875 5.4975 -6.1925 5.745 -7 6 C-7.33 5.01 -7.66 4.02 -8 3 C-8.66 2.67 -9.32 2.34 -10 2 C-6.5980513 -0.09350689 -3.94727588 -0.17942163 0 0 Z " fill="#4A9CE0" transform="translate(129,133)"/>
<path d="M0 0 C0.99 0.33 1.98 0.66 3 1 C3.75 2.9375 3.75 2.9375 4 5 C3.67 5.66 3.34 6.32 3 7 C1.35 7 -0.3 7 -2 7 C-2 5.35 -2 3.7 -2 2 C-1.34 2 -0.68 2 0 2 C0 1.34 0 0.68 0 0 Z " fill="#558AE6" transform="translate(78,112)"/>
<path d="M0 0 C0.33 0.66 0.66 1.32 1 2 C-0.38576653 4.77153305 -2.34131141 5.48074938 -5 7 C-5.99 7.66 -6.98 8.32 -8 9 C-8.66 8.67 -9.32 8.34 -10 8 C-8.76736651 4.30209954 -7.79947549 4.0645154 -4.4375 2.3125 C-3.61121094 1.87550781 -2.78492187 1.43851562 -1.93359375 0.98828125 C-1.29550781 0.66214844 -0.65742187 0.33601563 0 0 Z " fill="#549ACA" transform="translate(95,123)"/>
<path d="M0 0 C4.62 2.31 9.24 4.62 14 7 C9.17597292 8.20600677 8.19956096 7.32316138 4 5 C3.01 4.67 2.02 4.34 1 4 C0.67 2.68 0.34 1.36 0 0 Z " fill="#4EA4C5" transform="translate(94,56)"/>
<path d="M0 0 C5.65394631 -0.34615998 9.03006806 0.56574762 14 3 C13.01 4.32 12.02 5.64 11 7 C10.34 6.67 9.68 6.34 9 6 C9 5.34 9 4.68 9 4 C8.01 4 7.02 4 6 4 C5.67 3.34 5.34 2.68 5 2 C3.35 2 1.7 2 0 2 C0 1.34 0 0.68 0 0 Z " fill="#4BB4D1" transform="translate(40,177)"/>
<path d="M0 0 C0.66 0.33 1.32 0.66 2 1 C2 1.99 2 2.98 2 4 C-2.95 6.475 -2.95 6.475 -8 9 C-8 6 -8 6 -6 4 C-4.68 4 -3.36 4 -2 4 C-1.34 2.68 -0.68 1.36 0 0 Z " fill="#5883C2" transform="translate(59,154)"/>
<path d="M0 0 C0.33 0 0.66 0 1 0 C1 4.29 1 8.58 1 13 C-2.63 13 -6.26 13 -10 13 C-9.67 12.01 -9.34 11.02 -9 10 C-7.35 9.67 -5.7 9.34 -4 9 C-4 9.66 -4 10.32 -4 11 C-2.68 11 -1.36 11 0 11 C0 7.37 0 3.74 0 0 Z " fill="#639AB0" transform="translate(186,85)"/>
<path d="M0 0 C-5.94 3.465 -5.94 3.465 -12 7 C-12 4 -12 4 -10 2 C-4.62337662 -1.15584416 -4.62337662 -1.15584416 0 0 Z " fill="#4ABBC7" transform="translate(144,110)"/>
<path d="M0 0 C2.31 0.33 4.62 0.66 7 1 C7 2.32 7 3.64 7 5 C6.01 5.33 5.02 5.66 4 6 C1 4 1 4 0.3125 1.875 C0.209375 1.25625 0.10625 0.6375 0 0 Z " fill="#30C6DB" transform="translate(131,62)"/>
<path d="M0 0 C1.32 0 2.64 0 4 0 C4 0.66 4 1.32 4 2 C4.556875 2.12375 5.11375 2.2475 5.6875 2.375 C8.2618003 3.07075684 10.59880886 3.83185296 13 5 C13.33 5.99 13.66 6.98 14 8 C8.76481294 6.56032356 4.36973991 4.18303389 0 1 C0 0.67 0 0.34 0 0 Z " fill="#54AECD" transform="translate(113,57)"/>
<path d="M0 0 C7.61671924 3.10567823 7.61671924 3.10567823 9.125 6.625 C9 9 9 9 7 11 C6.67 9.35 6.34 7.7 6 6 C5.01 5.67 4.02 5.34 3 5 C1.3125 3.5625 1.3125 3.5625 0 2 C0 1.34 0 0.68 0 0 Z " fill="#6182C5" transform="translate(53,53)"/>
<path d="M0 0 C-2.1217363 1.33878572 -4.24705188 2.67115476 -6.375 4 C-6.97828125 4.3815625 -7.5815625 4.763125 -8.203125 5.15625 C-12.7734375 8 -12.7734375 8 -15 8 C-15 7.34 -15 6.68 -15 6 C-12.48046875 4.23828125 -12.48046875 4.23828125 -9.1875 2.3125 C-8.10855469 1.66925781 -7.02960938 1.02601563 -5.91796875 0.36328125 C-3 -1 -3 -1 0 0 Z " fill="#5689BC" transform="translate(136,133)"/>
<path d="M0 0 C3.85025879 0.60355408 6.86101159 1.76772603 10.3125 3.5625 C11.19550781 4.01753906 12.07851562 4.47257812 12.98828125 4.94140625 C13.65214844 5.29074219 14.31601563 5.64007813 15 6 C14.67 6.66 14.34 7.32 14 8 C9.02790438 6.23570801 4.56561939 3.6060834 0 1 C0 0.67 0 0.34 0 0 Z " fill="#53A3C7" transform="translate(86,65)"/>
<path d="M0 0 C2.64 0.33 5.28 0.66 8 1 C8 1.66 8 2.32 8 3 C5.09399739 4.25664978 3.20395416 5 0 5 C0 3.35 0 1.7 0 0 Z " fill="#48ABD5" transform="translate(22,24)"/>
<path d="M0 0 C-2.89654753 2.46742938 -5.14879822 3.80250247 -9 4 C-10.8125 2.5625 -10.8125 2.5625 -12 1 C-8.0186217 -0.3271261 -4.14954773 -0.06915913 0 0 Z " fill="#51BBC2" transform="translate(143,90)"/>
<path d="M0 0 C1.98270912 0.95098266 3.96108379 1.91100703 5.9375 2.875 C7.03964844 3.40867187 8.14179687 3.94234375 9.27734375 4.4921875 C12 6 12 6 13 8 C10.23723823 7.47731534 7.6739124 6.89130413 5 6 C4.67 5.34 4.34 4.68 4 4 C1.98330173 2.86649466 1.98330173 2.86649466 0 2 C0 1.34 0 0.68 0 0 Z " fill="#49B6C3" transform="translate(87,77)"/>
<path d="M0 0 C1.32 0 2.64 0 4 0 C4 0.99 4 1.98 4 3 C4.99 3 5.98 3 7 3 C7 3.99 7 4.98 7 6 C5.68 6.33 4.36 6.66 3 7 C2.67 5.35 2.34 3.7 2 2 C1.34 2 0.68 2 0 2 C0 1.34 0 0.68 0 0 Z " fill="#45B0D2" transform="translate(166,77)"/>
<path d="M0 0 C0.66 0 1.32 0 2 0 C1.34 1.98 0.68 3.96 0 6 C1.65 6.99 3.3 7.98 5 9 C4.67 9.66 4.34 10.32 4 11 C0.535 9.02 0.535 9.02 -3 7 C-1.125 2.25 -1.125 2.25 0 0 Z " fill="#5B6FAF" transform="translate(55,17)"/>
<path d="M0 0 C2.34914492 2.34914492 2.73140357 3.95679446 3.625 7.125 C3.88539062 8.03507813 4.14578125 8.94515625 4.4140625 9.8828125 C4.70410156 10.93082031 4.70410156 10.93082031 5 12 C4.34 12 3.68 12 3 12 C0.58314288 7.77050005 -0.34833144 4.87664009 0 0 Z " fill="#5A96BC" transform="translate(31,178)"/>
<path d="M0 0 C-1.62170379 1.00533667 -3.24747237 2.00411907 -4.875 3 C-6.23238281 3.8353125 -6.23238281 3.8353125 -7.6171875 4.6875 C-10 6 -10 6 -12 6 C-12 5.34 -12 4.68 -12 4 C-11.360625 3.71125 -10.72125 3.4225 -10.0625 3.125 C-7.84793921 2.17176549 -7.84793921 2.17176549 -7 0 C-4.0262656 -1.09036928 -3.11592499 -1.03864166 0 0 Z " fill="#49B0C6" transform="translate(130,118)"/>
<path d="M0 0 C2 2 2 2 2 6 C2.99 6 3.98 6 5 6 C5 6.99 5 7.98 5 9 C3.35 8.67 1.7 8.34 0 8 C-1.125 2.25 -1.125 2.25 0 0 Z " fill="#39D8DD" transform="translate(162,84)"/>
<path d="M0 0 C2.31 0.66 4.62 1.32 7 2 C7 2.66 7 3.32 7 4 C9.475 4.99 9.475 4.99 12 6 C9.46100862 6.9435441 8.39090725 7.16906025 5.859375 6.07421875 C5.16328125 5.61660156 4.4671875 5.15898438 3.75 4.6875 C3.04359375 4.23761719 2.3371875 3.78773437 1.609375 3.32421875 C1.07828125 2.88722656 0.5471875 2.45023438 0 2 C0 1.34 0 0.68 0 0 Z " fill="#5C7FC3" transform="translate(54,45)"/>
<path d="M0 0 C1.98270912 0.95098266 3.96108379 1.91100703 5.9375 2.875 C7.03964844 3.40867188 8.14179687 3.94234375 9.27734375 4.4921875 C12 6 12 6 13 8 C7.70139194 6.7023817 3.65474354 4.84984298 -1 2 C-0.67 1.34 -0.34 0.68 0 0 Z " fill="#5788C5" transform="translate(59,36)"/>
<path d="M0 0 C-0.60183749 2.02045442 -1.27306096 4.02111039 -2 6 C-2.99 6.495 -2.99 6.495 -4 7 C-4 6.34 -4 5.68 -4 5 C-4.99 4.67 -5.98 4.34 -7 4 C-2.25 0 -2.25 0 0 0 Z " fill="#5391D4" transform="translate(73,137)"/>
<path d="M0 0 C0.66 0.33 1.32 0.66 2 1 C-0.37409996 3.62400522 -2.81364829 5.44568209 -6 7 C-8.16015625 6.578125 -8.16015625 6.578125 -10 6 C-8.3811004 4.96951963 -6.75467511 3.95085322 -5.125 2.9375 C-4.22007812 2.36902344 -3.31515625 1.80054687 -2.3828125 1.21484375 C-1.20332031 0.61349609 -1.20332031 0.61349609 0 0 Z " fill="#568BB7" transform="translate(138,121)"/>
<path d="M0 0 C0.66 0 1.32 0 2 0 C2 2.64 2 5.28 2 8 C1.34 8 0.68 8 0 8 C-0.33 8.99 -0.66 9.98 -1 11 C-1.125 3.375 -1.125 3.375 0 0 Z " fill="#4BA6DC" transform="translate(72,96)"/>
<path d="M0 0 C2.97 0.99 5.94 1.98 9 3 C8.67 3.99 8.34 4.98 8 6 C4.54074837 4.7508258 1.85306797 3.32472205 -1 1 C-0.67 0.67 -0.34 0.34 0 0 Z " fill="#52ABC7" transform="translate(102,73)"/>
<path d="M0 0 C1.65 1.65 3.3 3.3 5 5 C4.67 5.66 4.34 6.32 4 7 C0.535 5.02 0.535 5.02 -3 3 C-2.01 2.67 -1.02 2.34 0 2 C0 1.34 0 0.68 0 0 Z " fill="#4CA8CA" transform="translate(107,50)"/>
<path d="M0 0 C4.30764815 1.56641751 8.06171464 3.68336156 12 6 C12 6.66 12 7.32 12 8 C8 6 4 4 0 2 C0 1.34 0 0.68 0 0 Z " fill="#5397BF" transform="translate(96,39)"/>
<path d="M0 0 C-4.95 2.97 -4.95 2.97 -10 6 C-10 5.01 -10 4.02 -10 3 C-3.375 -1.125 -3.375 -1.125 0 0 Z " fill="#49B4C1" transform="translate(88,161)"/>
<path d="M0 0 C0.66 0 1.32 0 2 0 C3.0326802 2.78823655 3.04509293 3.8677274 2.0625 6.75 C1.711875 7.4925 1.36125 8.235 1 9 C0.34 9 -0.32 9 -1 9 C-0.67 6.03 -0.34 3.06 0 0 Z " fill="#4FA4DF" transform="translate(67,142)"/>
<path d="M0 0 C0.33 0.66 0.66 1.32 1 2 C-1.51830747 5.12270126 -2.7261549 5.94523098 -6.75 6.75 C-8.35875 6.87375 -8.35875 6.87375 -10 7 C-7.2180632 3.72713318 -3.72045933 2.03572303 0 0 Z " fill="#51BFCA" transform="translate(136,99)"/>
<path d="M0 0 C3.59391114 1.33488128 6.75490696 2.96022723 10 5 C8.02 5.99 8.02 5.99 6 7 C6 6.01 6 5.02 6 4 C4.02 3.34 2.04 2.68 0 2 C0 1.34 0 0.68 0 0 Z " fill="#47AEC8" transform="translate(100,85)"/>
<path d="M0 0 C2.91517292 1.07401108 4.77810176 1.77810176 7 4 C6.34 4.66 5.68 5.32 5 6 C3.68 6 2.36 6 1 6 C0.67 4.02 0.34 2.04 0 0 Z " fill="#3ECED1" transform="translate(140,84)"/>
<path d="M0 0 C0.33 0.99 0.66 1.98 1 3 C1.66 3 2.32 3 3 3 C3.33 2.01 3.66 1.02 4 0 C4 1.98 4 3.96 4 6 C2.68 6.33 1.36 6.66 0 7 C0 4.69 0 2.38 0 0 Z " fill="#5F7AE7" transform="translate(26,150)"/>
<path d="M0 0 C1.4606285 2.64738916 2 3.89448334 2 7 C1.01 7 0.02 7 -1 7 C-1 6.01 -1 5.02 -1 4 C-1.66 4 -2.32 4 -3 4 C-2.67 3.01 -2.34 2.02 -2 1 C-1.34 0.67 -0.68 0.34 0 0 Z " fill="#4D8FDA" transform="translate(147,116)"/>
<path d="M0 0 C1.98 0.495 1.98 0.495 4 1 C4 2.32 4 3.64 4 5 C2.35 5 0.7 5 -1 5 C-0.67 3.35 -0.34 1.7 0 0 Z " fill="#23D9DB" transform="translate(137,84)"/>
<path d="M0 0 C2.97 1.65 5.94 3.3 9 5 C8.67 5.66 8.34 6.32 8 7 C7.34 7 6.68 7 6 7 C5.54625 6.525625 5.0925 6.05125 4.625 5.5625 C2.77022513 3.77906263 1.49864408 3.4308007 -1 3 C-0.67 2.01 -0.34 1.02 0 0 Z " fill="#5466BC" transform="translate(43,47)"/>
<path d="M0 0 C1.65 0 3.3 0 5 0 C5 1.32 5 2.64 5 4 C4.01 3.67 3.02 3.34 2 3 C1.67 3.66 1.34 4.32 1 5 C0.34 5 -0.32 5 -1 5 C-0.67 3.35 -0.34 1.7 0 0 Z " fill="#3BB5DE" transform="translate(35,179)"/>
<path d="M0 0 C-1.45537568 0.83848804 -2.91440373 1.67063934 -4.375 2.5 C-5.59316406 3.19609375 -5.59316406 3.19609375 -6.8359375 3.90625 C-9 5 -9 5 -11 5 C-11 4.34 -11 3.68 -11 3 C-4.03571429 -1.41964286 -4.03571429 -1.41964286 0 0 Z " fill="#5197C2" transform="translate(101,135)"/>
<path d="M0 0 C-2.62198774 2.15377564 -4.64404172 3.40072174 -8 4 C-7.625 2.0625 -7.625 2.0625 -7 0 C-4.3333581 -1.33332095 -2.83319697 -0.67102033 0 0 Z " fill="#4A9DE1" transform="translate(104,105)"/>
<path d="M0 0 C3.465 1.485 3.465 1.485 7 3 C6.67 3.99 6.34 4.98 6 6 C4.35 5.67 2.7 5.34 1 5 C0.67 3.35 0.34 1.7 0 0 Z " fill="#48A6C7" transform="translate(111,91)"/>
<path d="M0 0 C0.66 0.33 1.32 0.66 2 1 C-0.11770166 3.32947183 -2.03335588 4.88750845 -5 6 C-5.99 5.67 -6.98 5.34 -8 5 C-6.71475739 4.13619741 -5.42157581 3.28419631 -4.125 2.4375 C-3.04605469 1.72400391 -3.04605469 1.72400391 -1.9453125 0.99609375 C-1.30335937 0.66738281 -0.66140625 0.33867187 0 0 Z " fill="#5992BB" transform="translate(126,128)"/>
<path d="M0 0 C0.66 0.66 1.32 1.32 2 2 C0.35 3.32 -1.3 4.64 -3 6 C-3.66 5.67 -4.32 5.34 -5 5 C-4 2 -4 2 -1.9375 0.8125 C-1.298125 0.544375 -0.65875 0.27625 0 0 Z " fill="#4DA1C8" transform="translate(102,142)"/>
<path d="M0 0 C0.99 0.33 1.98 0.66 3 1 C3 1.99 3 2.98 3 4 C1.68 4.33 0.36 4.66 -1 5 C-1.33 3.68 -1.66 2.36 -2 1 C-1.34 0.67 -0.68 0.34 0 0 Z " fill="#13E3D8" transform="translate(153,93)"/>
<path d="M0 0 C0.99 0.33 1.98 0.66 3 1 C3 2.32 3 3.64 3 5 C1.68 5 0.36 5 -1 5 C-1.33 4.01 -1.66 3.02 -2 2 C-1.34 1.34 -0.68 0.68 0 0 Z " fill="#5A82EA" transform="translate(55,39)"/>
<path d="M0 0 C3.375 0.25 3.375 0.25 7 1 C8.4375 3.0625 8.4375 3.0625 9 5 C5.22454612 3.90931332 2.52956528 3.0916909 0 0 Z " fill="#5C7BBD" transform="translate(61,28)"/>
<path d="M0 0 C0.66 0.66 1.32 1.32 2 2 C-2.75 5 -2.75 5 -5 5 C-5 3.68 -5 2.36 -5 1 C-2.625 0.375 -2.625 0.375 0 0 Z " fill="#44B9BF" transform="translate(75,166)"/>
<path d="M0 0 C1.65 0 3.3 0 5 0 C4.01 0.495 4.01 0.495 3 1 C3 2.32 3 3.64 3 5 C1.68 4.67 0.36 4.34 -1 4 C-0.67 2.68 -0.34 1.36 0 0 Z " fill="#1AD2CF" transform="translate(161,79)"/>
<path d="M0 0 C-1.39332574 3.36720387 -2.9789286 4.9859524 -6 7 C-5.37162381 3.35541809 -4.14650034 0 0 0 Z " fill="#4CBFC2" transform="translate(39,26)"/>
<path d="M0 0 C0.93065133 2.60582371 1.14917407 3.64198224 0.0625 6.25 C-0.4634375 7.11625 -0.4634375 7.11625 -1 8 C-1.33 8 -1.66 8 -2 8 C-2 5.69 -2 3.38 -2 1 C-1.34 0.67 -0.68 0.34 0 0 Z " fill="#31C4D4" transform="translate(35,16)"/>
</svg>
